<?xml version="1.0" standalone="no"?>
<!DOCTYPE svg PUBLIC "-//W3C//DTD SVG 1.1//EN" "http://www.w3.org/Graphics/SVG/1.1/DTD/svg11.dtd" >
<svg xmlns="http://www.w3.org/2000/svg" xmlns:xlink="http://www.w3.org/1999/xlink" version="1.1">
<metadata>
Created by FontForge 20170731 at Wed Mar 17 16:34:32 2021
 By Aleksey,,,
Copyright (c) 2017 by Alexander Slobzheninov. All rights reserved.
</metadata>
<defs>
<font id="Objectivity-ExtraBold" horiz-adv-x="1294" >
  <font-face 
    font-family="Objectivity ExtBd"
    font-weight="800"
    font-stretch="normal"
    units-per-em="2048"
    panose-1="0 0 0 0 0 0 0 0 0 0"
    ascent="1638"
    descent="-410"
    x-height="1057"
    cap-height="1466"
    bbox="-150 -756 3168 2281"
    underline-thickness="102"
    underline-position="-358"
    unicode-range="U+000D-F6C3"
  />
<missing-glyph horiz-adv-x="1024" 
 />
    <glyph glyph-name=".notdef" horiz-adv-x="1024" 
 />
    <glyph glyph-name=".null" horiz-adv-x="0" 
 />
    <glyph glyph-name="nonmarkingreturn" horiz-adv-x="682" 
 />
    <glyph glyph-name="NULL" horiz-adv-x="1519" 
d="M1374 1466v-1466h-1231v1466h1231zM487 295h543v879h-543v-879z" />
    <glyph glyph-name="NULL" horiz-adv-x="1519" 
d="M1374 1466v-1466h-1231v1466h1231zM487 295h543v879h-543v-879z" />
    <glyph glyph-name="CR" unicode="&#xd;" horiz-adv-x="61" 
 />
    <glyph glyph-name="space" unicode=" " horiz-adv-x="620" 
 />
    <glyph glyph-name="exclam" unicode="!" horiz-adv-x="704" 
d="M352 -37q-95 0 -157 59.5t-62 151.5q0 93 61.5 153t157.5 60q97 0 158 -59.5t61 -153.5q0 -92 -61 -151.5t-158 -59.5zM553 1466v-401l-104 -555h-195l-102 555v401h401z" />
    <glyph glyph-name="quotedbl" unicode="&#x22;" horiz-adv-x="864" 
d="M356 1180l-49 -461h-184l-49 461v286h282v-286zM791 1180l-52 -461h-182l-51 461v286h285v-286z" />
    <glyph glyph-name="numbersign" unicode="#" horiz-adv-x="1888" 
d="M827 874l-57 -210h252l55 210h-250zM1712 664v-261h-428l-108 -403h-332l106 403h-250l-108 -403h-334l111 403h-295v261h364l58 210h-320v263h389l107 391h334l-107 -391h250l106 391h334l-108 -391h334v-263h-404l-57 -210h358z" />
    <glyph glyph-name="dollar" unicode="$" horiz-adv-x="1482" 
d="M946 -29v-221h-411v221q-204 50 -326.5 187.5t-122.5 324.5h385q2 -94 80.5 -155.5t198.5 -61.5q96 0 155.5 42t59.5 108q0 22 -8.5 40t-20 31t-35.5 23.5t-42.5 17t-54.5 13t-58.5 9.5t-65.5 9q-72 8 -128.5 18t-119.5 27.5t-110.5 40t-92 57.5t-73 78.5t-45.5 103.5
t-17 132q0 182 120 311t321 172v180h411v-190q187 -51 300 -181t114 -302h-373q1 84 -71 139t-181 55q-93 0 -152 -38t-59 -97q0 -25 9 -45t30 -33.5t42 -23t59 -17t67 -11.5t78 -9q69 -7 125 -16.5t118.5 -26.5t110.5 -39.5t93 -57t74.5 -78t47 -103.5t17.5 -132
q0 -187 -121.5 -320.5t-327.5 -181.5z" />
    <glyph glyph-name="percent" unicode="%" horiz-adv-x="2254" 
d="M1270 420q0 199 128 328t326 129q200 0 328.5 -128.5t128.5 -328.5q0 -198 -129 -326.5t-328 -128.5q-198 0 -326 128.5t-128 326.5zM1876 420q0 66 -42.5 108.5t-109.5 42.5q-66 0 -107.5 -42.5t-41.5 -108.5t41.5 -108t107.5 -42q67 0 109.5 42t42.5 108zM74 1108
q0 200 128.5 328.5t327.5 128.5q198 0 326.5 -129t128.5 -328q0 -198 -128.5 -326.5t-326.5 -128.5q-199 0 -327.5 128.5t-128.5 326.5zM680 1108q0 66 -42 107.5t-108 41.5q-67 0 -109 -41.5t-42 -107.5t42 -108t109 -42q66 0 108 42t42 108zM1466 1528h340l-1018 -1528
h-339z" />
    <glyph glyph-name="ampersand" unicode="&#x26;" horiz-adv-x="1759" 
d="M907 301q-104 89 -311 279q-104 -48 -104 -154q0 -75 64.5 -124.5t164.5 -49.5q96 0 186 49zM756 844q23 -20 192 -174t195 -178q60 87 102 204h350q-66 -220 -229 -407q279 -258 315 -289h-432l-108 96q-228 -147 -488 -147q-255 0 -409 120t-154 328q0 79 22 143.5
t63.5 112t90.5 81.5t113 63q-96 138 -96 276q0 191 140.5 315.5t352.5 124.5q199 0 343 -112.5t167 -286.5l-336 -59q-10 75 -58.5 123.5t-111.5 48.5q-61 0 -103 -45.5t-42 -116.5q0 -112 121 -221z" />
    <glyph glyph-name="quotesingle" unicode="'" horiz-adv-x="430" 
d="M356 1180l-49 -461h-184l-49 461v286h282v-286z" />
    <glyph glyph-name="parenleft" unicode="(" horiz-adv-x="780" 
d="M762 -369h-356q-147 149 -236.5 406.5t-89.5 542.5t89.5 543t236.5 405h356q-154 -176 -246 -432t-92 -516q0 -263 91.5 -519t246.5 -430z" />
    <glyph glyph-name="parenright" unicode=")" horiz-adv-x="780" 
d="M375 -369h-357q155 174 246.5 430t91.5 519q0 261 -91.5 516.5t-246.5 431.5h357q147 -147 236 -404.5t89 -543.5q0 -285 -89 -542.5t-236 -406.5z" />
    <glyph glyph-name="asterisk" unicode="*" horiz-adv-x="1058" 
d="M985 903l-131 -225l-211 141l16 -254h-260l17 254l-211 -141l-131 225l225 113l-225 112l131 226l211 -140l-17 252h260l-16 -252l211 140l131 -226l-225 -112z" />
    <glyph glyph-name="plus" unicode="+" horiz-adv-x="1110" 
d="M737 184h-364v312h-299v282h299v307h364v-307h299v-282h-299v-312z" />
    <glyph glyph-name="comma" unicode="," horiz-adv-x="589" 
d="M268 -37q-85 0 -139.5 59.5t-54.5 151.5q0 91 61.5 151t151.5 60q103 0 166 -81t63 -216q0 -121 -63 -248t-160 -202l-193 47q74 66 121 143.5t47 134.5z" />
    <glyph glyph-name="hyphen" unicode="-" horiz-adv-x="987" 
d="M74 793h839v-314h-839v314z" />
    <glyph glyph-name="period" unicode="." horiz-adv-x="587" 
d="M293 -37q-95 0 -157 59.5t-62 151.5q0 93 61.5 153t157.5 60q97 0 158 -59.5t61 -153.5q0 -92 -61 -151.5t-158 -59.5z" />
    <glyph glyph-name="slash" unicode="/" horiz-adv-x="1026" 
d="M670 1466h340l-652 -1937h-340z" />
    <glyph glyph-name="zero" unicode="0" horiz-adv-x="1583" 
d="M793 -51q-200 0 -358.5 100.5t-246.5 279.5t-88 404t88 404t246.5 280t358.5 101q199 0 357 -101t246.5 -280t88.5 -404t-88.5 -404t-246.5 -279.5t-357 -100.5zM793 1141q-110 0 -179 -114.5t-69 -293.5q0 -178 69 -292.5t179 -114.5q108 0 177.5 114.5t69.5 292.5
q0 179 -69 293.5t-178 114.5z" />
    <glyph glyph-name="one" unicode="1" horiz-adv-x="1011" 
d="M418 0v1006l-350 -256v413l405 303h375v-1466h-430z" />
    <glyph glyph-name="two" unicode="2" horiz-adv-x="1357" 
d="M481 924l-385 73q15 149 97.5 268t214.5 186t288 67t284.5 -62.5t203.5 -174t76 -249.5q0 -246 -242 -448l-324 -267h529v-317h-1129v244l602 501q79 68 121.5 126.5t42.5 127.5q0 75 -48 123.5t-122 48.5q-78 0 -137.5 -70t-71.5 -177z" />
    <glyph glyph-name="three" unicode="3" horiz-adv-x="1359" 
d="M733 1149h-618v317h1104v-231l-310 -320q158 -40 255.5 -166t97.5 -294q0 -145 -78.5 -261t-216.5 -180.5t-310 -64.5q-264 0 -428.5 153.5t-179.5 395.5l387 55q12 -116 69.5 -186t149.5 -70q84 0 138.5 55.5t54.5 141.5t-54 141t-137 55q-68 0 -114 -24l-86 229z" />
    <glyph glyph-name="four" unicode="4" horiz-adv-x="1404" 
d="M451 623h268v505zM719 305h-680v230l522 931h602v-843h164v-318h-164v-305h-444v305z" />
    <glyph glyph-name="five" unicode="5" horiz-adv-x="1388" 
d="M657 700h-467l58 766h946v-317h-633l-18 -193h252q224 0 364.5 -135.5t140.5 -349.5q0 -152 -77.5 -271.5t-215.5 -185t-311 -65.5q-264 0 -428.5 152.5t-179.5 396.5l387 55q11 -116 68.5 -186t150.5 -70q84 0 138.5 55.5t54.5 139.5q0 92 -63.5 150t-166.5 58z" />
    <glyph glyph-name="six" unicode="6" horiz-adv-x="1392" 
d="M698 297q78 0 127 60t49 157q0 92 -49 149.5t-127 57.5q-79 1 -129.5 -57t-50.5 -150q0 -97 50 -157t130 -60zM201 846l432 620h479l-352 -487q56 12 117 12q196 0 319 -133.5t123 -345.5q0 -251 -175.5 -407t-457.5 -156q-274 0 -443 151t-169 396q0 83 36.5 178.5
t90.5 171.5z" />
    <glyph glyph-name="seven" unicode="7" horiz-adv-x="1097" 
d="M1085 1210l-495 -1210h-457l463 1120h-569v346h1058v-256z" />
    <glyph glyph-name="eight" unicode="8" horiz-adv-x="1456" 
d="M729 614q-78 0 -129 -44t-51 -113t51 -114.5t129 -45.5t128 45.5t50 114.5t-50.5 113t-127.5 44zM729 1186q-73 0 -120.5 -41.5t-47.5 -104.5q0 -66 47.5 -109.5t120.5 -43.5q72 0 119 43.5t47 109.5q0 63 -47 104.5t-119 41.5zM729 1526q247 0 406 -116t159 -298
q0 -115 -61 -210t-156 -126q121 -26 200 -131.5t79 -238.5q0 -196 -176.5 -322.5t-450.5 -126.5q-180 0 -324 57.5t-224.5 160.5t-80.5 231q0 133 79 238.5t200 131.5q-95 31 -156 125.5t-61 208.5q0 182 160 299t407 117z" />
    <glyph glyph-name="nine" unicode="9" horiz-adv-x="1392" 
d="M694 1169q-78 0 -127 -60t-49 -157q0 -92 49 -149.5t127 -57.5q80 0 130 57.5t50 149.5q0 97 -50.5 157.5t-129.5 59.5zM1192 621l-432 -621h-479l352 487q-74 -12 -117 -12q-196 0 -319 133.5t-123 345.5q0 251 175.5 407.5t459.5 156.5q272 0 441 -151.5t169 -395.5
q0 -83 -36.5 -178.5t-90.5 -171.5z" />
    <glyph glyph-name="colon" unicode=":" horiz-adv-x="587" 
d="M293 -37q-95 0 -157 59.5t-62 151.5q0 93 61.5 153t157.5 60q97 0 158 -59.5t61 -153.5q0 -92 -61 -151.5t-158 -59.5zM293 682q-95 0 -157 59.5t-62 151.5t62 151.5t157 59.5q97 0 158 -59.5t61 -151.5t-61 -151.5t-158 -59.5z" />
    <glyph glyph-name="semicolon" unicode=";" horiz-adv-x="589" 
d="M268 -37q-85 0 -139.5 59.5t-54.5 151.5q0 91 61.5 151t151.5 60q103 0 166 -81t63 -216q0 -121 -63 -248t-160 -202l-193 47q74 66 121 143.5t47 134.5zM293 682q-95 0 -157 59.5t-62 151.5t62 151.5t157 59.5q97 0 158 -59.5t61 -151.5t-61 -151.5t-158 -59.5z" />
    <glyph glyph-name="less" unicode="&#x3c;" horiz-adv-x="886" 
d="M295 528l512 -213v-333l-789 372v348l789 371v-332z" />
    <glyph glyph-name="equal" unicode="=" horiz-adv-x="1110" 
d="M74 514h962v-299h-962v299zM74 1042h962v-299h-962v299z" />
    <glyph glyph-name="greater" unicode="&#x3e;" horiz-adv-x="884" 
d="M868 702v-348l-788 -372v333l510 213l-510 213v332z" />
    <glyph glyph-name="question" unicode="?" horiz-adv-x="1341" 
d="M662 -37q-95 0 -157.5 59.5t-62.5 151.5t62.5 151.5t157.5 59.5q97 0 158 -59.5t61 -151.5t-61 -151.5t-158 -59.5zM838 461h-351q0 151 47.5 242t157.5 163q36 23 52 35t42 35.5t37 48.5t11 55q0 63 -45 104.5t-111 41.5q-82 0 -137 -64t-66 -164l-395 72
q19 215 188.5 351.5t425.5 136.5q161 0 291.5 -55.5t204.5 -155.5t74 -226q0 -123 -67.5 -215t-182.5 -151q-60 -31 -94.5 -59t-58 -77t-23.5 -118z" />
    <glyph glyph-name="at" unicode="@" horiz-adv-x="2125" 
d="M1229 532q0 73 -47 120.5t-119 47.5t-118 -47t-46 -121q0 -72 46 -119.5t118 -47.5t119 47.5t47 119.5zM1063 1186q-198 0 -357 -84t-249 -233.5t-90 -336.5q0 -179 70 -322t195 -223.5t281 -80.5q83 0 171.5 22.5t148.5 57.5v-269q-62 -33 -150.5 -53t-169.5 -20
q-177 0 -331 66.5t-264.5 183.5t-174 282.5t-63.5 355.5q0 255 126.5 458.5t351 318t505.5 114.5q282 0 507 -114.5t351.5 -318t126.5 -458.5q0 -160 -48 -278.5t-151.5 -188t-253.5 -69.5q-128 0 -218 62.5t-103 160.5q-44 -61 -132 -98t-186 -37q-168 0 -272 124t-104 324
q0 196 136.5 323.5t346.5 127.5q216 0 350.5 -128.5t134.5 -334.5v-178q0 -28 2.5 -48t10.5 -43.5t26.5 -36.5t46.5 -13q125 0 125 331q0 187 -89.5 336.5t-248.5 233.5t-358 84z" />
    <glyph glyph-name="A" unicode="A" horiz-adv-x="1601" 
d="M801 1092l-172 -570h346zM545 211l-62 -211h-465l459 1466h647l459 -1466h-465l-61 211h-512z" />
    <glyph glyph-name="B" unicode="B" horiz-adv-x="1597" 
d="M1038 459q0 69 -53 112t-139 43h-258v-297h258q86 0 139 40t53 102zM815 1149h-227v-262h227q82 0 132 36t50 95t-50 95t-132 36zM944 0h-801v1466h760q245 0 399 -114t154 -289q0 -116 -56 -199.5t-151 -111.5q113 -26 180.5 -122.5t67.5 -232.5q0 -183 -151.5 -290
t-401.5 -107z" />
    <glyph glyph-name="C" unicode="C" horiz-adv-x="1714" 
d="M891 326q118 0 211 72.5t119 185.5l413 -47q-16 -168 -118 -302.5t-268.5 -210t-366.5 -75.5q-172 0 -321 59t-254.5 162t-165.5 249t-60 314t60 314t165.5 249.5t254 162.5t319.5 59q197 0 362 -76.5t268 -212.5t121 -307l-411 -43q-23 114 -115 188t-211 74
q-164 0 -266.5 -113t-102.5 -295q0 -181 102.5 -294t264.5 -113z" />
    <glyph glyph-name="D" unicode="D" horiz-adv-x="1667" 
d="M143 0v1466h607q249 0 440 -91t295 -257.5t104 -384.5t-104 -384.5t-295 -257.5t-440 -91h-607zM1145 733q0 182 -108.5 292t-286.5 110h-177v-803h177q178 0 286.5 109.5t108.5 291.5z" />
    <glyph glyph-name="E" unicode="E" horiz-adv-x="1288" 
d="M571 598v-250h639v-348h-1067v1466h1047v-346h-619v-223h537v-299h-537z" />
    <glyph glyph-name="F" unicode="F" horiz-adv-x="1239" 
d="M1065 483h-477v-483h-445v1466h1043v-376h-598v-277h477v-330z" />
    <glyph glyph-name="G" unicode="G" horiz-adv-x="1769" 
d="M920 326q137 0 236 76t106 190h-375v254h799q20 -192 -29 -359t-152.5 -285t-259 -185.5t-342.5 -67.5q-176 0 -329 59t-261.5 162t-170.5 249t-62 314t62 314t170.5 249.5t261.5 162.5t329 59q274 0 473.5 -145t247.5 -374l-410 -69q-26 92 -114.5 151.5t-198.5 59.5
q-164 0 -270.5 -115t-106.5 -293q0 -177 111.5 -292t284.5 -115z" />
    <glyph glyph-name="H" unicode="H" horiz-adv-x="1660" 
d="M586 0h-445v1466h445v-536h489v536h445v-1466h-445v584h-489v-584z" />
    <glyph glyph-name="I" unicode="I" horiz-adv-x="731" 
d="M143 1466h445v-1466h-445v1466z" />
    <glyph glyph-name="J" unicode="J" horiz-adv-x="1032" 
d="M459 537v929h444v-989q0 -230 -148.5 -374t-377.5 -144q-178 0 -309 41v332q80 -25 180 -25q94 0 152.5 63t58.5 167z" />
    <glyph glyph-name="K" unicode="K" horiz-adv-x="1542" 
d="M143 0v1466h445v-561l413 561h525l-545 -692l549 -774h-524l-418 627v-627h-445z" />
    <glyph glyph-name="L" unicode="L" horiz-adv-x="1191" 
d="M1124 0h-981v1466h445v-1089h536v-377z" />
    <glyph glyph-name="M" unicode="M" horiz-adv-x="2134" 
d="M573 938v-938h-430v1466h568l356 -999l348 999h576v-1466h-430v940l-330 -940h-328z" />
    <glyph glyph-name="N" unicode="N" horiz-adv-x="1665" 
d="M604 1466l504 -931v931h414v-1466h-461l-504 928v-928h-414v1466h461z" />
    <glyph glyph-name="O" unicode="O" horiz-adv-x="1806" 
d="M903 -51q-182 0 -335.5 57t-260.5 159.5t-167 248.5t-60 319q0 231 102.5 409.5t290 277t430.5 98.5t431 -98.5t291.5 -277t103.5 -409.5t-103.5 -409.5t-291.5 -276.5t-431 -98zM903 1141q-169 0 -274 -113t-105 -295q0 -181 105 -293t274 -114q170 0 275.5 112.5
t105.5 294.5t-105.5 295t-275.5 113z" />
    <glyph glyph-name="P" unicode="P" horiz-adv-x="1517" 
d="M758 1149h-187v-440h187q115 0 186.5 61.5t71.5 159.5t-72 158.5t-186 60.5zM840 391h-269v-391h-428v1466h703q274 0 444 -148.5t170 -387.5q0 -240 -172 -389.5t-448 -149.5z" />
    <glyph glyph-name="Q" unicode="Q" horiz-adv-x="1806" 
d="M903 1141q-169 0 -274 -113t-105 -295q0 -181 105 -293t274 -114q169 0 275 113t106 294q0 182 -105.5 295t-275.5 113zM1729 733q0 -198 -77.5 -358t-217.5 -266l247 -334h-407l-150 200q-111 -26 -221 -26q-182 0 -335.5 57t-260.5 159.5t-167 248.5t-60 319
q0 231 102.5 409.5t290 277t430.5 98.5t431 -98.5t291.5 -277t103.5 -409.5z" />
    <glyph glyph-name="R" unicode="R" horiz-adv-x="1613" 
d="M807 1149h-219v-389h219q104 0 174 53.5t70 140.5q0 90 -69.5 142.5t-174.5 52.5zM588 473v-473h-445v1466h750q269 0 435.5 -141t166.5 -371q0 -147 -81.5 -259t-221.5 -165l344 -530h-489l-254 473h-205z" />
    <glyph glyph-name="S" unicode="S" horiz-adv-x="1482" 
d="M1395 473q0 -153 -84 -273t-234 -185.5t-342 -65.5q-186 0 -334.5 68.5t-231.5 190.5t-83 275h385q2 -94 80.5 -155.5t198.5 -61.5q96 0 155.5 42t59.5 108q0 22 -8.5 40t-20 31t-35.5 23.5t-42.5 17t-54.5 13t-58.5 9.5t-65.5 9q-72 8 -128.5 18t-119.5 27.5t-110.5 40
t-92 57.5t-73 78.5t-45.5 103.5t-17 132q0 224 175 363t452 139q278 0 457.5 -144.5t181.5 -367.5h-373q1 84 -71 139t-181 55q-93 0 -152 -38t-59 -97q0 -25 9 -45t30 -33.5t42 -23t59 -17t67 -11.5t78 -9q69 -7 125 -16.5t118.5 -26.5t110.5 -39.5t93 -57t74.5 -78
t47 -103.5t17.5 -132z" />
    <glyph glyph-name="T" unicode="T" horiz-adv-x="1323" 
d="M440 0v1104h-413v362h1269v-362h-413v-1104h-443z" />
    <glyph glyph-name="U" unicode="U" horiz-adv-x="1636" 
d="M1067 631v835h444v-852q0 -296 -191.5 -480.5t-500.5 -184.5q-205 0 -363 83.5t-244.5 235t-86.5 346.5v852h444v-835q0 -122 66 -210.5t184 -94.5q110 0 179 85t69 220z" />
    <glyph glyph-name="V" unicode="V" horiz-adv-x="1587" 
d="M18 1468l459 -2l318 -1140l315 1140h461l-436 -1466h-680z" />
    <glyph glyph-name="W" unicode="W" horiz-adv-x="2531" 
d="M1487 1466l278 -1075l275 1075h446l-393 -1466h-612l-215 885l-215 -885h-613l-395 1466h449l276 -1075l279 1075h440z" />
    <glyph glyph-name="X" unicode="X" horiz-adv-x="1738" 
d="M39 0l475 774l-467 692h508l309 -460l310 460h520l-498 -692l504 -774h-520l-318 528l-313 -528h-510z" />
    <glyph glyph-name="Y" unicode="Y" horiz-adv-x="1482" 
d="M524 0v500l-508 966h463l269 -585l247 585h471l-497 -966v-500h-445z" />
    <glyph glyph-name="Z" unicode="Z" horiz-adv-x="1384" 
d="M88 291l621 831h-600v344h1167v-290l-600 -832h620v-344h-1208v291z" />
    <glyph glyph-name="bracketleft" unicode="[" horiz-adv-x="866" 
d="M520 1268v-1377h328v-260h-705v1897h705v-260h-328z" />
    <glyph glyph-name="backslash" unicode="\" horiz-adv-x="1028" 
d="M358 1466l652 -1937h-340l-652 1937h340z" />
    <glyph glyph-name="bracketright" unicode="]" horiz-adv-x="866" 
d="M723 -369h-705v260h328v1377h-328v260h705v-1897z" />
    <glyph glyph-name="asciicircum" unicode="^" horiz-adv-x="1261" 
d="M631 1229l-197 -410h-360l366 647h381l367 -647h-357z" />
    <glyph glyph-name="underscore" unicode="_" horiz-adv-x="1024" 
d="M0 0h1024v-266h-1024v266z" />
    <glyph glyph-name="grave" unicode="`" horiz-adv-x="733" 
d="M74 1528h350l235 -361h-276z" />
    <glyph glyph-name="a" unicode="a" horiz-adv-x="1392" 
d="M674 303q89 0 147 64t58 161q0 98 -58 162t-147 64q-90 0 -147.5 -63.5t-57.5 -162.5q0 -97 57.5 -161t147.5 -64zM881 922v135h393v-1057h-393v135q-121 -176 -326 -176q-215 0 -348 157.5t-133 411.5t133 412t348 158q205 0 326 -176z" />
    <glyph glyph-name="b" unicode="b" horiz-adv-x="1372" 
d="M700 752q-89 0 -146.5 -63.5t-57.5 -160.5q0 -96 57.5 -158.5t146.5 -62.5t147 62t58 159t-58 160.5t-147 63.5zM1298 528q0 -254 -131 -411.5t-342 -157.5q-195 0 -315 152v-111h-393v1528h395v-582q120 152 313 152q212 0 342.5 -158t130.5 -412z" />
    <glyph glyph-name="c" unicode="c" horiz-adv-x="1292" 
d="M666 1098q143 0 265.5 -55.5t200.5 -155.5t93 -225l-363 -48q-15 68 -69 112t-123 44q-87 0 -144 -68.5t-57 -173.5q0 -104 56.5 -172.5t144.5 -68.5q69 0 123 43.5t69 111.5l363 -43q-25 -191 -184 -315.5t-375 -124.5q-167 0 -302.5 73t-212.5 203.5t-77 292.5
q0 247 167.5 408.5t424.5 161.5z" />
    <glyph glyph-name="d" unicode="d" horiz-adv-x="1372" 
d="M674 752q-90 0 -147.5 -63.5t-57.5 -160.5t58 -159t147 -62t147 63t58 158q0 97 -58 160.5t-147 63.5zM74 528q0 254 131 412t342 158q191 0 315 -152v582h393v-1528h-393v111q-120 -152 -315 -152q-211 0 -342 157.5t-131 411.5z" />
    <glyph glyph-name="e" unicode="e" horiz-adv-x="1325" 
d="M477 629h377q-5 77 -58.5 131.5t-131.5 54.5q-74 0 -123 -50t-64 -136zM74 532q0 251 167.5 408.5t430.5 157.5q262 0 420.5 -157t158.5 -413q0 -66 -4 -106h-768q21 -84 73.5 -131t131.5 -47q66 0 113.5 32t66.5 84l348 -45q-35 -156 -189 -256t-359 -100
q-262 0 -426 158.5t-164 414.5z" />
    <glyph glyph-name="f" unicode="f" horiz-adv-x="874" 
d="M602 1120v-63h219v-293h-219v-764h-393v764h-135v293h135v84q0 193 104 310.5t273 117.5q122 0 235 -37v-320q-50 13 -96 13q-55 0 -89 -29t-34 -76z" />
    <glyph glyph-name="g" unicode="g" horiz-adv-x="1372" 
d="M674 307q89 0 147 63t58 158q0 98 -58 162t-147 64q-90 0 -147.5 -63.5t-57.5 -162.5q0 -96 57.5 -158.5t147.5 -62.5zM659 -213q90 0 146.5 63.5t56.5 169.5v115q-122 -141 -317 -141q-205 0 -338 149t-133 385q0 252 133 411t338 159q197 0 317 -152v111h393v-1051
q0 -236 -159 -377t-420 -141q-226 0 -384 119.5t-177 304.5l344 37q13 -70 69.5 -116t130.5 -46z" />
    <glyph glyph-name="h" unicode="h" 
d="M117 1528h395v-582q50 72 132.5 112t176.5 40q169 0 273 -112t104 -294v-692h-395v588q0 74 -38.5 120t-102.5 46q-65 0 -107.5 -48t-42.5 -124v-582h-395v1528z" />
    <glyph glyph-name="i" unicode="i" horiz-adv-x="673" 
d="M139 1057h396v-1057h-396v1057zM338 1165q-96 0 -158.5 60t-62.5 153q0 92 62.5 151.5t158.5 59.5q95 0 157 -59.5t62 -151.5q0 -93 -61.5 -153t-157.5 -60z" />
    <glyph glyph-name="j" unicode="j" horiz-adv-x="688" 
d="M154 -20v1077h395v-1129q0 -186 -109 -298.5t-286 -112.5q-145 0 -258 37l2 303q67 -13 116 -13q63 2 101.5 39t38.5 97zM350 1165q-96 0 -157.5 60t-61.5 153q0 92 62 151.5t157 59.5q97 0 158 -59.5t61 -151.5q0 -94 -61 -153.5t-158 -59.5z" />
    <glyph glyph-name="k" unicode="k" horiz-adv-x="1302" 
d="M117 0v1528h395v-846l307 375h463l-424 -502l432 -555h-465l-313 424v-424h-395z" />
    <glyph glyph-name="l" unicode="l" horiz-adv-x="626" 
d="M117 1528h393v-1528h-393v1528z" />
    <glyph glyph-name="m" unicode="m" horiz-adv-x="1966" 
d="M512 0h-395v1057h379v-131q46 83 130 127.5t183 44.5q107 0 191 -47t128 -131q46 81 144 129.5t205 48.5q176 0 284.5 -113t108.5 -295v-690h-395v586q0 71 -39.5 118t-106.5 50q-67 0 -107 -47t-40 -121v-586h-394v586q0 75 -38 121.5t-99 46.5q-64 0 -101.5 -46
t-37.5 -122v-586z" />
    <glyph glyph-name="n" unicode="n" 
d="M117 1057h381v-152q59 91 143.5 142t185.5 51q162 0 266.5 -118.5t104.5 -301.5v-678h-395v588q0 74 -37.5 120t-101.5 46q-65 0 -108.5 -48t-43.5 -124v-582h-395v1057z" />
    <glyph glyph-name="o" unicode="o" horiz-adv-x="1343" 
d="M672 1098q267 0 432.5 -157.5t165.5 -412.5t-165.5 -412t-432.5 -157q-269 0 -434.5 157t-165.5 412t166 412.5t434 157.5zM672 303q91 0 148 62.5t57 162.5t-57 163t-148 63t-148 -63t-57 -163t57 -162.5t148 -62.5z" />
    <glyph glyph-name="p" unicode="p" horiz-adv-x="1372" 
d="M700 307q89 0 147 63t58 158q0 97 -58 160.5t-147 63.5t-146.5 -63.5t-57.5 -160.5q0 -96 57.5 -158.5t146.5 -62.5zM1298 528q0 -254 -130.5 -411.5t-342.5 -157.5q-193 0 -313 152v-582h-395v1528h393v-109q121 150 315 150q211 0 342 -158t131 -412z" />
    <glyph glyph-name="q" unicode="q" horiz-adv-x="1372" 
d="M674 307q89 0 147 63t58 158q0 97 -58 160.5t-147 63.5t-147 -63.5t-58 -160.5q0 -96 57.5 -158.5t147.5 -62.5zM74 528q0 254 131 412t342 158q194 0 315 -150v109h393v-1528h-393v582q-124 -152 -315 -152q-211 0 -342 157.5t-131 411.5z" />
    <glyph glyph-name="r" unicode="r" horiz-adv-x="925" 
d="M117 1057h379v-133q43 79 118.5 126.5t159.5 47.5q49 0 119 -25v-350q-100 43 -186 43q-87 0 -141 -61t-54 -160v-545h-395v1057z" />
    <glyph glyph-name="s" unicode="s" horiz-adv-x="1177" 
d="M1116 352q0 -176 -149 -288.5t-387 -112.5q-218 0 -359.5 111.5t-140.5 283.5h317q0 -61 54 -101t137 -40q65 0 108 28t43 70q0 47 -54 69.5t-169 30.5q-78 6 -133 15.5t-115 31.5t-97 55.5t-61 90t-24 133.5q0 164 136.5 270.5t344.5 106.5q220 0 363 -105t143 -266
l-334 2q-2 50 -50 82.5t-120 32.5q-58 0 -97.5 -26t-39.5 -64q0 -21 13.5 -36.5t46.5 -26.5t48.5 -14.5t57.5 -10.5q7 -1 10 -2q58 -6 100.5 -11.5t99 -17.5t96.5 -26.5t82.5 -39t69 -55t43.5 -74t17 -96.5z" />
    <glyph glyph-name="t" unicode="t" horiz-adv-x="880" 
d="M188 387v377h-135v293h152l39 276h338v-276h221v-293h-221v-330q0 -60 34 -96.5t91 -36.5q51 0 100 12v-317q-116 -37 -238 -37q-170 0 -275.5 120t-105.5 308z" />
    <glyph glyph-name="u" unicode="u" 
d="M1178 0h-379v152q-60 -91 -145.5 -142t-186.5 -51q-163 0 -267 118.5t-104 303.5v676h396v-586q0 -75 37.5 -121.5t101.5 -46.5q65 0 108 49t43 125v580h396v-1057z" />
    <glyph glyph-name="v" unicode="v" horiz-adv-x="1302" 
d="M934 0h-565l-351 1057h420l213 -760l213 760h420z" />
    <glyph glyph-name="w" unicode="w" horiz-adv-x="1933" 
d="M825 0h-487l-299 1057h407l168 -660l183 660h340l198 -670l168 670h393l-301 -1057h-485l-143 596z" />
    <glyph glyph-name="x" unicode="x" horiz-adv-x="1380" 
d="M518 0h-479l352 549l-336 508h467l168 -295l168 295h469l-338 -508l354 -549h-481l-172 328z" />
    <glyph glyph-name="y" unicode="y" horiz-adv-x="1298" 
d="M209 -444v276q43 -16 113 -16q89 0 139 37.5t80 128.5l-523 1075h428l244 -580l184 580h406l-401 -1106q-82 -226 -187 -330t-256 -104q-124 0 -227 39z" />
    <glyph glyph-name="z" unicode="z" horiz-adv-x="1177" 
d="M88 258l459 485h-438v314h960v-256l-422 -488h443v-313h-1002v258z" />
    <glyph glyph-name="braceleft" unicode="{" horiz-adv-x="901" 
d="M760 -109h123v-260h-371q-123 0 -197.5 75t-74.5 198v372q0 63 -38.5 101.5t-101.5 38.5h-20v348h20q63 0 101.5 38t38.5 101v352q0 123 74.5 198t197.5 75h371v-260h-123q-64 0 -104 -40t-40 -104v-256q0 -117 -70.5 -193t-187.5 -83l-20 -2l20 -2q116 -6 187 -82.5
t71 -194.5v-276q0 -65 40 -104.5t104 -39.5z" />
    <glyph glyph-name="bar" unicode="|" horiz-adv-x="632" 
d="M143 1528h346v-1999h-346v1999z" />
    <glyph glyph-name="braceright" unicode="}" horiz-adv-x="901" 
d="M389 -369h-371v260h123q65 0 104.5 39.5t39.5 104.5v276q0 118 71 194.5t187 82.5l20 2l-20 2q-117 7 -187.5 83t-70.5 193v256q0 64 -39.5 104t-104.5 40h-123v260h371q123 0 198 -75t75 -198v-352q0 -63 38 -101t101 -38h20v-348h-20q-63 0 -101 -38.5t-38 -101.5v-372
q0 -123 -75 -198t-198 -75z" />
    <glyph glyph-name="asciitilde" unicode="~" horiz-adv-x="1314" 
d="M178 457l-104 254q69 76 162 124t170 48q66 0 145 -33.5t139 -73t128.5 -73t115.5 -33.5q56 0 110.5 27t90.5 71l106 -256q-67 -76 -159 -123t-171 -47q-66 0 -147 33t-143 72.5t-133 72.5t-121 33q-49 0 -99.5 -26t-89.5 -70z" />
    <glyph glyph-name="exclamdown" unicode="&#xa1;" horiz-adv-x="704" 
d="M152 -471v401l102 555h195l102 -555v-401h-399zM352 1032q95 0 157 -59.5t62 -151.5t-62 -151.5t-157 -59.5q-97 0 -158 59.5t-61 151.5t61 151.5t158 59.5z" />
    <glyph glyph-name="cent" unicode="&#xa2;" horiz-adv-x="1292" 
d="M807 -25v-215h-334v228q-181 55 -290 199.5t-109 340.5t108.5 342.5t290.5 200.5v193h334v-181q169 -37 283.5 -151.5t134.5 -269.5l-363 -48q-15 68 -69 112t-123 44q-87 0 -144 -68.5t-57 -173.5q0 -104 56.5 -172.5t144.5 -68.5q69 0 123 43.5t69 111.5l363 -43
q-20 -157 -135 -272t-283 -152z" />
    <glyph glyph-name="sterling" unicode="&#xa3;" horiz-adv-x="1390" 
d="M1317 1075l-348 -55q-8 75 -46.5 122.5t-95.5 47.5q-54 0 -85 -43.5t-31 -112.5v-176h419v-240h-442q-47 -214 -256 -305h883v-313h-1241v354q185 56 215 264h-195v240h205v193q0 204 136.5 335.5t357.5 131.5q216 0 360.5 -124.5t163.5 -318.5z" />
    <glyph glyph-name="currency" unicode="&#xa4;" horiz-adv-x="1486" 
d="M748 291q91 0 147.5 65.5t56.5 171.5t-56.5 172t-147.5 66t-148 -66t-57 -172t56.5 -171.5t148.5 -65.5zM1049 995l125 148l229 -182l-133 -156q76 -121 76 -277q0 -154 -76 -278l139 -158l-235 -178l-125 145q-132 -63 -301 -63q-170 0 -302 63l-141 -145l-225 176
l143 160q-76 124 -76 278q0 156 76 277l-131 156l227 182l127 -146q134 64 302 64q169 0 301 -66z" />
    <glyph glyph-name="yen" unicode="&#xa5;" horiz-adv-x="1589" 
d="M193 643h296l-450 823h479l283 -618l264 618h485l-442 -823h293v-194h-379v-97h379v-194h-379v-158h-444v158h-385v194h385v97h-385v194z" />
    <glyph glyph-name="section" unicode="&#xa7;" horiz-adv-x="1331" 
d="M877 557q0 80 -146 105q-7 1 -89 21.5t-91 21.5q-48 -4 -80.5 -33.5t-32.5 -63.5q0 -84 172 -116q9 -3 68 -16t70 -15q57 4 93 31.5t36 64.5zM150 1057q0 172 139 279.5t366 107.5q196 0 334 -89t176 -247l-329 -45q-11 68 -63.5 111t-125.5 43q-64 0 -105.5 -27
t-41.5 -68q0 -20 9 -37t31.5 -31t42 -23.5t59.5 -20.5t63.5 -16.5t74.5 -16.5q61 -13 92.5 -20.5t89 -24t89.5 -31t74 -39.5t64 -52.5t38 -66t16 -84.5q0 -100 -69.5 -174t-184.5 -104q82 -39 131 -112.5t49 -176.5q0 -178 -147.5 -293.5t-374.5 -115.5q-199 0 -341 98.5
t-165 251.5l326 45q11 -66 67.5 -110t131.5 -44q64 0 106.5 26.5t42.5 69.5q0 24 -9.5 43.5t-32 34.5t-43 26t-60.5 22t-65 17t-75 17q-54 11 -89.5 19.5t-86 24.5t-84 31.5t-70.5 40.5t-59 53.5t-36.5 68.5t-14.5 86q0 96 59.5 170.5t159.5 103.5q-73 37 -116 108t-43 171z
" />
    <glyph glyph-name="dieresis" unicode="&#xa8;" horiz-adv-x="1081" 
d="M264 1145q-83 0 -136.5 51t-53.5 131q0 78 53.5 129t136.5 51t136 -51t53 -129q0 -80 -53 -131t-136 -51zM817 1145q-82 0 -136 51.5t-54 130.5q0 78 54 129t136 51q83 0 136 -51t53 -129q0 -80 -53 -131t-136 -51z" />
    <glyph glyph-name="copyright" unicode="&#xa9;" horiz-adv-x="2113" 
d="M1057 1237q-212 0 -375 -88t-252.5 -247t-89.5 -365q0 -321 198 -519t519 -198t519 198t198 519q0 206 -89.5 365t-252.5 247t-375 88zM1065 1081q202 0 348.5 -119.5t171.5 -302.5l-264 -41q-20 96 -89.5 158t-158.5 62q-110 0 -184 -87t-74 -223q0 -133 74.5 -221
t185.5 -88q90 0 160.5 64t89.5 163l256 -47q-19 -185 -163 -304.5t-349 -119.5q-237 0 -393 154t-156 399q0 241 153.5 397t391.5 156zM1057 -408q-216 0 -398.5 69t-309.5 192t-198 299t-71 385q0 274 122 484.5t344 326.5t511 116t511.5 -115.5t345 -326.5t122.5 -485
q0 -209 -71.5 -385t-199 -299t-310 -192t-398.5 -69z" />
    <glyph glyph-name="guillemotleft" unicode="&#xab;" horiz-adv-x="1499" 
d="M825 1057l-364 -514l364 -543h-403l-348 543l348 514h403zM1421 1057l-364 -514l364 -543h-401l-350 543l350 514h401z" />
    <glyph glyph-name="logicalnot" unicode="&#xac;" horiz-adv-x="1316" 
d="M944 143v342h-870v312h1149v-654h-279z" />
    <glyph glyph-name="registered" unicode="&#xae;" horiz-adv-x="2113" 
d="M340 537q0 -321 198 -519t519 -198t519 198t198 519q0 206 -89.5 365t-252.5 247t-375 88t-375 -88t-252.5 -247t-89.5 -365zM1075 879h-162v-301h166q75 0 122.5 40.5t47.5 110.5q0 69 -45 109.5t-129 40.5zM1057 -408q-216 0 -398.5 69t-309.5 192t-198 299t-71 385
q0 274 122 484.5t344 326.5t511 116t511.5 -115.5t345 -326.5t122.5 -485q0 -209 -71.5 -385t-199 -299t-310 -192t-398.5 -69zM1300 440l220 -420h-316l-166 394h-125v-394h-278v1037h500q178 0 288.5 -89.5t110.5 -232.5q0 -106 -62.5 -183.5t-171.5 -111.5z" />
    <glyph glyph-name="macron" unicode="&#xaf;" horiz-adv-x="874" 
d="M801 1448v-229h-727v229h727z" />
    <glyph glyph-name="degree" unicode="&#xb0;" horiz-adv-x="1118" 
d="M559 664q-218 0 -351.5 124t-133.5 326q0 203 133.5 328t351.5 125t351.5 -125t133.5 -328q0 -202 -133.5 -326t-351.5 -124zM559 1321q-94 0 -150.5 -56.5t-56.5 -150.5t56.5 -150.5t150.5 -56.5t150.5 56.5t56.5 150.5t-56.5 150.5t-150.5 56.5z" />
    <glyph glyph-name="plusminus" unicode="&#xb1;" horiz-adv-x="1110" 
d="M74 256h962v-256h-962v256zM709 401h-308v203h-327v256h327v197h308v-197h327v-256h-327v-203z" />
    <glyph glyph-name="acute" unicode="&#xb4;" horiz-adv-x="763" 
d="M659 1528l-309 -361h-276l235 361h350z" />
    <glyph glyph-name="paragraph" unicode="&#xb6;" horiz-adv-x="1724" 
d="M1602 1190h-201v-1612h-344v1612h-172v-1612h-344v1018q-212 0 -340.5 119.5t-126.5 316.5q2 195 130 314.5t337 119.5h1061v-276z" />
    <glyph glyph-name="periodcentered" unicode="&#xb7;" horiz-adv-x="587" 
d="M293 424q-95 0 -157 60.5t-62 152.5t62 151.5t157 59.5q97 0 158 -59.5t61 -151.5q0 -93 -61.5 -153t-157.5 -60z" />
    <glyph glyph-name="cedilla" unicode="&#xb8;" horiz-adv-x="641" 
d="M246 -252h-99l54 303h194l-37 -209q95 0 152 -53t57 -141q0 -91 -73 -146t-193 -55q-78 0 -140 37.5t-87 97.5l100 82q13 -32 42.5 -52t62.5 -20q36 0 57.5 21t21.5 55q0 37 -30.5 58.5t-81.5 21.5z" />
    <glyph glyph-name="guillemotright" unicode="&#xbb;" horiz-adv-x="1497" 
d="M829 543l-350 -543h-401l364 543l-364 514h401zM1425 543l-350 -543h-401l364 543l-364 514h401z" />
    <glyph glyph-name="questiondown" unicode="&#xbf;" horiz-adv-x="1341" 
d="M506 563h348q0 -151 -47.5 -241.5t-157.5 -161.5q-78 -53 -103 -82q-38 -44 -38 -94q0 -63 45 -104.5t113 -41.5q80 0 135 64t67 164l396 -72q-20 -215 -190.5 -351.5t-426.5 -136.5q-245 0 -406 124t-161 315q0 122 67 213.5t181 150.5q92 46 135 100t43 154zM688 1063
q96 0 157.5 -60t61.5 -153q0 -92 -62 -151.5t-157 -59.5q-97 0 -158 59.5t-61 151.5q0 94 61 153.5t158 59.5z" />
    <glyph glyph-name="Agrave" unicode="&#xc0;" horiz-adv-x="1601" 
d="M801 1092l-172 -570h346zM545 211l-62 -211h-465l459 1466h647l459 -1466h-465l-61 211h-512zM649 1610l-301 321h357l235 -321h-291z" />
    <glyph glyph-name="Aacute" unicode="&#xc1;" horiz-adv-x="1601" 
d="M801 1092l-172 -570h346zM545 211l-62 -211h-465l459 1466h647l459 -1466h-465l-61 211h-512zM633 1610l235 321h355l-301 -321h-289z" />
    <glyph glyph-name="Acircumflex" unicode="&#xc2;" horiz-adv-x="1601" 
d="M801 1092l-172 -570h346zM545 211l-62 -211h-465l459 1466h647l459 -1466h-465l-61 211h-512zM801 1784l-135 -174h-258l202 321h381l203 -321h-258z" />
    <glyph glyph-name="Atilde" unicode="&#xc3;" horiz-adv-x="1601" 
d="M801 1092l-172 -570h346zM545 211l-62 -211h-465l459 1466h647l459 -1466h-465l-61 211h-512zM541 1679l-181 97q31 91 111 152t174 61q49 0 96.5 -17t78 -37.5t64 -37.5t58.5 -17q32 0 61 22.5t48 59.5l184 -96q-31 -89 -116 -150t-183 -61q-51 0 -99.5 16.5t-77.5 36.5
t-61.5 36.5t-56.5 16.5q-55 0 -100 -82z" />
    <glyph glyph-name="Adieresis" unicode="&#xc4;" horiz-adv-x="1601" 
d="M801 1092l-172 -570h346zM545 211l-62 -211h-465l459 1466h647l459 -1466h-465l-61 211h-512zM528 1602q-82 0 -135 52.5t-53 135.5t53 135.5t135 52.5q84 0 137.5 -52.5t53.5 -135.5t-53.5 -135.5t-137.5 -52.5zM1073 1602q-83 0 -136.5 52.5t-53.5 135.5t53.5 135.5
t136.5 52.5t136 -52.5t53 -135.5t-53 -135.5t-136 -52.5z" />
    <glyph glyph-name="Aring" unicode="&#xc5;" horiz-adv-x="1601" 
d="M801 1092l-172 -570h346zM801 1886q-34 0 -54 -20t-20 -54q0 -32 20.5 -52.5t53.5 -20.5q32 0 52.5 20.5t20.5 52.5q0 34 -20 54t-53 20zM545 211l-62 -211h-465l459 1466h647l459 -1466h-465l-61 211h-512zM801 1561q-128 0 -207.5 69.5t-79.5 181.5q0 114 78.5 183
t206.5 69t207 -69t79 -183q0 -113 -78.5 -182t-205.5 -69z" />
    <glyph glyph-name="AE" unicode="&#xc6;" horiz-adv-x="2097" 
d="M750 510h313v659zM1458 348h561v-348h-956v211h-453l-100 -211h-492l721 1466h1260v-348h-541v-225h459v-299h-459v-246z" />
    <glyph glyph-name="Ccedilla" unicode="&#xc7;" horiz-adv-x="1714" 
d="M852 -252h-98l34 205q-206 20 -367 124.5t-251 275.5t-90 380q0 168 60 314t165.5 249.5t254 162.5t319.5 59q197 0 362 -76.5t268 -212.5t121 -307l-411 -43q-23 114 -115 188t-211 74q-164 0 -266.5 -113t-102.5 -295q0 -181 102.5 -294t264.5 -113q118 0 211 72.5
t119 185.5l413 -47q-22 -232 -202 -392.5t-447 -189.5l-20 -113q95 0 152 -53t57 -141q0 -91 -73.5 -146t-193.5 -55q-78 0 -140 37.5t-87 97.5l100 82q13 -32 42.5 -52t62.5 -20q36 0 58 21t22 55q0 37 -31 58.5t-82 21.5z" />
    <glyph glyph-name="Egrave" unicode="&#xc8;" horiz-adv-x="1288" 
d="M571 598v-250h639v-348h-1067v1466h1047v-346h-619v-223h537v-299h-537zM215 1931h356l236 -321h-291z" />
    <glyph glyph-name="Eacute" unicode="&#xc9;" horiz-adv-x="1288" 
d="M571 598v-250h639v-348h-1067v1466h1047v-346h-619v-223h537v-299h-537zM735 1931h355l-302 -321h-288z" />
    <glyph glyph-name="Ecircumflex" unicode="&#xca;" horiz-adv-x="1288" 
d="M571 598v-250h639v-348h-1067v1466h1047v-346h-619v-223h537v-299h-537zM532 1610h-258l203 321h381l203 -321h-258l-135 174z" />
    <glyph glyph-name="Edieresis" unicode="&#xcb;" horiz-adv-x="1288" 
d="M571 598v-250h639v-348h-1067v1466h1047v-346h-619v-223h537v-299h-537zM395 1602q-82 0 -135 52.5t-53 135.5t53 135.5t135 52.5q84 0 137.5 -52.5t53.5 -135.5t-53.5 -135.5t-137.5 -52.5zM938 1602q-82 0 -135 52.5t-53 135.5t53 135.5t135 52.5q83 0 136.5 -52.5
t53.5 -135.5t-53.5 -135.5t-136.5 -52.5z" />
    <glyph glyph-name="Igrave" unicode="&#xcc;" horiz-adv-x="731" 
d="M143 1466h445v-1466h-445v1466zM-88 1931h356l236 -321h-291z" />
    <glyph glyph-name="Iacute" unicode="&#xcd;" horiz-adv-x="739" 
d="M143 1466h445v-1466h-445v1466zM434 1931h354l-301 -321h-288z" />
    <glyph glyph-name="Icircumflex" unicode="&#xce;" horiz-adv-x="733" 
d="M143 1466h445v-1466h-445v1466zM229 1610h-256l201 321h383l201 -321h-256l-135 174z" />
    <glyph glyph-name="Idieresis" unicode="&#xcf;" horiz-adv-x="718" 
d="M137 1466h445v-1466h-445v1466zM88 1602q-83 0 -136.5 52.5t-53.5 135.5t53.5 135.5t136.5 52.5t135.5 -52.5t52.5 -135.5t-52.5 -135.5t-135.5 -52.5zM631 1602q-84 0 -137.5 52.5t-53.5 135.5t53.5 135.5t137.5 52.5q83 0 135.5 -52.5t52.5 -135.5t-52.5 -135.5
t-135.5 -52.5z" />
    <glyph glyph-name="Ntilde" unicode="&#xd1;" horiz-adv-x="1665" 
d="M143 1466h461l504 -931v931h414v-1466h-461l-504 928v-928h-414v1466zM575 1679l-180 97q31 91 111 152t174 61q49 0 96.5 -17t78 -37.5t64 -37.5t58.5 -17q32 0 60.5 22t47.5 60l183 -96q-30 -89 -114.5 -150t-182.5 -61q-51 0 -99.5 16.5t-77.5 36.5t-61.5 36.5
t-56.5 16.5q-56 0 -101 -82z" />
    <glyph glyph-name="Ograve" unicode="&#xd2;" horiz-adv-x="1806" 
d="M903 -51q-182 0 -335.5 57t-260.5 159.5t-167 248.5t-60 319q0 231 102.5 409.5t290 277t430.5 98.5t431 -98.5t291.5 -277t103.5 -409.5t-103.5 -409.5t-291.5 -276.5t-431 -98zM903 1141q-169 0 -274 -113t-105 -295q0 -181 105 -293t274 -114q170 0 275.5 112.5
t105.5 294.5t-105.5 295t-275.5 113zM453 1931h354l235 -321h-288z" />
    <glyph glyph-name="Oacute" unicode="&#xd3;" horiz-adv-x="1806" 
d="M903 -51q-182 0 -335.5 57t-260.5 159.5t-167 248.5t-60 319q0 231 102.5 409.5t290 277t430.5 98.5t431 -98.5t291.5 -277t103.5 -409.5t-103.5 -409.5t-291.5 -276.5t-431 -98zM903 1141q-169 0 -274 -113t-105 -295q0 -181 105 -293t274 -114q170 0 275.5 112.5
t105.5 294.5t-105.5 295t-275.5 113zM971 1931h356l-303 -321h-289z" />
    <glyph glyph-name="Ocircumflex" unicode="&#xd4;" horiz-adv-x="1806" 
d="M903 1141q-169 0 -274 -113t-105 -295q0 -181 105 -293t274 -114q170 0 275.5 112.5t105.5 294.5t-105.5 295t-275.5 113zM903 -51q-182 0 -335.5 57t-260.5 159.5t-167 248.5t-60 319q0 231 102.5 409.5t290 277t430.5 98.5t431 -98.5t291.5 -277t103.5 -409.5
t-103.5 -409.5t-291.5 -276.5t-431 -98zM903 1784l-135 -174h-258l203 321h381l202 -321h-256z" />
    <glyph glyph-name="Otilde" unicode="&#xd5;" horiz-adv-x="1806" 
d="M903 1141q-169 0 -274 -113t-105 -295q0 -181 105 -293t274 -114q170 0 275.5 112.5t105.5 294.5t-105.5 295t-275.5 113zM903 -51q-182 0 -335.5 57t-260.5 159.5t-167 248.5t-60 319q0 231 102.5 409.5t290 277t430.5 98.5t431 -98.5t291.5 -277t103.5 -409.5
t-103.5 -409.5t-291.5 -276.5t-431 -98zM645 1679l-182 97q31 91 111 152t174 61q49 0 96.5 -17t78 -37.5t65 -37.5t59.5 -17q31 0 60 22.5t46 59.5l184 -96q-31 -89 -116 -150t-183 -61q-51 0 -99.5 16.5t-77.5 36.5t-61.5 36.5t-56.5 16.5q-56 0 -98 -82z" />
    <glyph glyph-name="Odieresis" unicode="&#xd6;" horiz-adv-x="1806" 
d="M903 -51q-182 0 -335.5 57t-260.5 159.5t-167 248.5t-60 319q0 231 102.5 409.5t290 277t430.5 98.5t431 -98.5t291.5 -277t103.5 -409.5t-103.5 -409.5t-291.5 -276.5t-431 -98zM903 1141q-169 0 -274 -113t-105 -295q0 -181 105 -293t274 -114q170 0 275.5 112.5
t105.5 294.5t-105.5 295t-275.5 113zM633 1602q-84 0 -137.5 52.5t-53.5 135.5t53.5 135.5t137.5 52.5q83 0 135.5 -52.5t52.5 -135.5t-52.5 -135.5t-135.5 -52.5zM1176 1602q-84 0 -137.5 52.5t-53.5 135.5t53.5 135.5t137.5 52.5q83 0 135.5 -52.5t52.5 -135.5
t-52.5 -135.5t-135.5 -52.5z" />
    <glyph glyph-name="multiply" unicode="&#xd7;" horiz-adv-x="974" 
d="M299 195l-225 223l190 194l-190 193l225 223l188 -190l189 192l225 -225l-190 -193l188 -194l-223 -223l-189 192z" />
    <glyph glyph-name="Oslash" unicode="&#xd8;" horiz-adv-x="1765" 
d="M883 1141q-156 0 -257.5 -115t-101.5 -293q0 -169 101 -278l348 671q-54 15 -90 15zM883 326q157 0 258.5 114.5t101.5 292.5q0 160 -94 275l-346 -672q31 -10 80 -10zM621 -12l-142 -275h-239l186 363q-162 103 -254 274.5t-92 382.5q0 168 60.5 314t166 249.5
t255 162.5t321.5 59q144 0 272 -41l148 284h239l-194 -375q160 -106 250 -275t90 -378q0 -168 -60.5 -314t-166.5 -249t-255.5 -162t-322.5 -59q-137 0 -262 39z" />
    <glyph glyph-name="Ugrave" unicode="&#xd9;" horiz-adv-x="1636" 
d="M1067 631v835h444v-852q0 -296 -191.5 -480.5t-500.5 -184.5q-205 0 -363 83.5t-244.5 235t-86.5 346.5v852h444v-835q0 -122 66 -210.5t184 -94.5q110 0 179 85t69 220zM367 1931h354l235 -321h-288z" />
    <glyph glyph-name="Uacute" unicode="&#xda;" horiz-adv-x="1636" 
d="M1067 631v835h444v-852q0 -296 -191.5 -480.5t-500.5 -184.5q-205 0 -363 83.5t-244.5 235t-86.5 346.5v852h444v-835q0 -122 66 -210.5t184 -94.5q110 0 179 85t69 220zM887 1931h354l-301 -321h-291z" />
    <glyph glyph-name="Ucircumflex" unicode="&#xdb;" horiz-adv-x="1636" 
d="M1067 631v835h444v-852q0 -296 -191.5 -480.5t-500.5 -184.5q-205 0 -363 83.5t-244.5 235t-86.5 346.5v852h444v-835q0 -122 66 -210.5t184 -94.5q110 0 179 85t69 220zM682 1610h-256l201 321h383l200 -321h-256l-137 174z" />
    <glyph glyph-name="Udieresis" unicode="&#xdc;" horiz-adv-x="1636" 
d="M1067 631v835h444v-852q0 -296 -191.5 -480.5t-500.5 -184.5q-205 0 -363 83.5t-244.5 235t-86.5 346.5v852h444v-835q0 -122 66 -210.5t184 -94.5q110 0 179 85t69 220zM547 1602q-84 0 -137.5 52.5t-53.5 135.5t53.5 135.5t137.5 52.5q83 0 135.5 -52.5t52.5 -135.5
t-52.5 -135.5t-135.5 -52.5zM1090 1602q-82 0 -135.5 52.5t-53.5 135.5t53.5 135.5t135.5 52.5q83 0 136.5 -52.5t53.5 -135.5t-53.5 -135.5t-136.5 -52.5z" />
    <glyph glyph-name="Yacute" unicode="&#xdd;" horiz-adv-x="1482" 
d="M524 0v500l-508 966h463l269 -585l247 585h471l-497 -966v-500h-445zM809 1931h356l-301 -321h-291z" />
    <glyph glyph-name="germandbls" unicode="&#xdf;" horiz-adv-x="1599" 
d="M567 993v-993h-444v983q0 236 182 383t477 147q269 0 432.5 -121.5t163.5 -320.5q0 -95 -53.5 -166t-146.5 -102q137 -30 230 -147t93 -273q0 -189 -136 -311.5t-343 -122.5q-85 0 -183.5 23.5t-176.5 60.5l67 258q92 -47 166 -47q71 0 116.5 51.5t45.5 130.5
q0 100 -64.5 161.5t-177.5 61.5h-94v238h98q72 0 116 41.5t44 107.5q0 80 -57 130.5t-148 50.5q-93 0 -150 -61.5t-57 -162.5z" />
    <glyph glyph-name="agrave" unicode="&#xe0;" horiz-adv-x="1392" 
d="M674 303q89 0 147 64t58 161q0 98 -58 162t-147 64q-90 0 -147.5 -63.5t-57.5 -162.5q0 -97 57.5 -161t147.5 -64zM881 922v135h393v-1057h-393v135q-121 -176 -326 -176q-215 0 -348 157.5t-133 411.5t133 412t348 158q205 0 326 -176zM551 1180l-309 360l350 2
l235 -362h-276z" />
    <glyph glyph-name="aacute" unicode="&#xe1;" horiz-adv-x="1392" 
d="M674 303q89 0 147 64t58 161q0 98 -58 162t-147 64q-90 0 -147.5 -63.5t-57.5 -162.5q0 -97 57.5 -161t147.5 -64zM881 922v135h393v-1057h-393v135q-121 -176 -326 -176q-215 0 -348 157.5t-133 411.5t133 412t348 158q205 0 326 -176zM504 1180l235 362l351 -2
l-310 -360h-276z" />
    <glyph glyph-name="acircumflex" unicode="&#xe2;" horiz-adv-x="1392" 
d="M674 303q89 0 147 64t58 161q0 98 -58 162t-147 64q-90 0 -147.5 -63.5t-57.5 -162.5q0 -97 57.5 -161t147.5 -64zM881 922v135h393v-1057h-393v135q-121 -176 -326 -176q-215 0 -348 157.5t-133 411.5t133 412t348 158q205 0 326 -176zM670 1395l-138 -213h-264l209 360
h383l211 -362l-266 2z" />
    <glyph glyph-name="atilde" unicode="&#xe3;" horiz-adv-x="1392" 
d="M674 303q89 0 147 64t58 161q0 98 -58 162t-147 64q-90 0 -147.5 -63.5t-57.5 -162.5q0 -97 57.5 -161t147.5 -64zM881 922v135h393v-1057h-393v135q-121 -176 -326 -176q-215 0 -348 157.5t-133 411.5t133 412t348 158q205 0 326 -176zM432 1229l-182 90q31 91 112 152
t175 61q48 0 95.5 -16.5t78.5 -37t65.5 -37t59.5 -16.5q30 0 58 21t46 55l184 -92q-31 -89 -115.5 -150t-183.5 -61q-51 0 -99.5 16.5t-78 37t-62 37t-57.5 16.5q-57 0 -96 -76z" />
    <glyph glyph-name="adieresis" unicode="&#xe4;" horiz-adv-x="1392" 
d="M674 303q89 0 147 64t58 161q0 98 -58 162t-147 64q-90 0 -147.5 -63.5t-57.5 -162.5q0 -97 57.5 -161t147.5 -64zM881 922v135h393v-1057h-393v135q-121 -176 -326 -176q-215 0 -348 157.5t-133 411.5t133 412t348 158q205 0 326 -176zM391 1178q-82 0 -135 51.5
t-53 130.5q0 78 53 129t135 51q83 0 137 -51t54 -129q0 -79 -54 -130.5t-137 -51.5zM944 1178q-82 0 -135 51.5t-53 130.5q0 78 53 129t135 51q84 0 137.5 -51t53.5 -129q0 -80 -53.5 -131t-137.5 -51z" />
    <glyph glyph-name="aring" unicode="&#xe5;" horiz-adv-x="1392" 
d="M674 303q89 0 147 64t58 161q0 98 -58 162t-147 64q-90 0 -147.5 -63.5t-57.5 -162.5q0 -97 57.5 -161t147.5 -64zM668 1559q-50 0 -80 -31t-29 -80q0 -50 30 -80.5t79 -30.5t79.5 30.5t30.5 80.5t-30.5 80.5t-79.5 30.5zM881 922v135h393v-1057h-393v135
q-121 -176 -326 -176q-215 0 -348 157.5t-133 411.5t133 412t348 158q205 0 326 -176zM668 1159q-145 0 -233.5 80t-88.5 209t88.5 209t233.5 80q144 0 232.5 -80t88.5 -209t-88.5 -209t-232.5 -80z" />
    <glyph glyph-name="ae" unicode="&#xe6;" horiz-adv-x="2138" 
d="M686 786q-97 0 -158 -71.5t-61 -186.5q0 -114 61 -186t158 -72q98 0 159.5 71t61.5 187q0 115 -61.5 186.5t-159.5 71.5zM1286 606h383q-5 81 -58.5 137t-131.5 56q-76 0 -127 -50.5t-66 -142.5zM903 915v142h234v-160q52 92 156 146.5t239 54.5q232 0 383 -157.5
t151 -401.5q0 -54 -6 -123h-770q15 -77 73.5 -124.5t139.5 -47.5q65 0 116 31.5t64 82.5l338 -45q-40 -155 -180 -254.5t-317 -99.5q-127 0 -233 55t-154 142v-156h-234v141q-61 -87 -149.5 -134.5t-196.5 -47.5q-215 0 -349 157.5t-134 411.5t134 412t349 158
q107 0 196 -48t150 -135z" />
    <glyph glyph-name="ccedilla" unicode="&#xe7;" horiz-adv-x="1292" 
d="M614 -252h-98l39 219q-214 36 -347.5 189.5t-133.5 371.5q0 247 167.5 408.5t424.5 161.5q143 0 265.5 -55.5t200.5 -155.5t93 -225l-363 -48q-15 68 -69 112t-123 44q-87 0 -144 -68.5t-57 -173.5q0 -104 56.5 -172.5t144.5 -68.5q69 0 123 43.5t69 111.5l363 -43
q-23 -171 -155.5 -291t-319.5 -143l-21 -123q94 0 150.5 -53t56.5 -141q0 -91 -73 -146t-193 -55q-78 0 -140.5 37.5t-87.5 97.5l101 82q15 -33 44 -52.5t62 -19.5q36 0 58 21t22 55q0 37 -31 58.5t-84 21.5z" />
    <glyph glyph-name="egrave" unicode="&#xe8;" horiz-adv-x="1325" 
d="M477 629h377q-5 77 -58.5 131.5t-131.5 54.5q-74 0 -123 -50t-64 -136zM74 532q0 251 167.5 408.5t430.5 157.5q262 0 420.5 -157t158.5 -413q0 -66 -4 -106h-768q21 -84 73.5 -131t131.5 -47q66 0 113.5 32t66.5 84l348 -45q-35 -156 -189 -256t-359 -100
q-262 0 -426 158.5t-164 414.5zM555 1180l-311 360l352 2l235 -362h-276z" />
    <glyph glyph-name="eacute" unicode="&#xe9;" horiz-adv-x="1325" 
d="M477 629h377q-5 77 -58.5 131.5t-131.5 54.5q-74 0 -123 -50t-64 -136zM74 532q0 251 167.5 408.5t430.5 157.5q262 0 420.5 -157t158.5 -413q0 -66 -4 -106h-768q21 -84 73.5 -131t131.5 -47q66 0 113.5 32t66.5 84l348 -45q-35 -156 -189 -256t-359 -100
q-262 0 -426 158.5t-164 414.5zM508 1180l235 362l351 -2l-310 -360h-276z" />
    <glyph glyph-name="ecircumflex" unicode="&#xea;" horiz-adv-x="1325" 
d="M477 629h377q-5 77 -58.5 131.5t-131.5 54.5q-74 0 -123 -50t-64 -136zM74 532q0 251 167.5 408.5t430.5 157.5q262 0 420.5 -157t158.5 -413q0 -66 -4 -106h-768q21 -84 73.5 -131t131.5 -47q66 0 113.5 32t66.5 84l348 -45q-35 -156 -189 -256t-359 -100
q-262 0 -426 158.5t-164 414.5zM672 1395l-135 -213h-267l211 360h381l213 -362l-266 2z" />
    <glyph glyph-name="edieresis" unicode="&#xeb;" horiz-adv-x="1325" 
d="M477 629h377q-5 77 -58.5 131.5t-131.5 54.5q-74 0 -123 -50t-64 -136zM74 532q0 251 167.5 408.5t430.5 157.5q262 0 420.5 -157t158.5 -413q0 -66 -4 -106h-768q21 -84 73.5 -131t131.5 -47q66 0 113.5 32t66.5 84l348 -45q-35 -156 -189 -256t-359 -100
q-262 0 -426 158.5t-164 414.5zM395 1178q-83 0 -136.5 51t-53.5 131q0 78 53.5 129t136.5 51t136 -51t53 -129q0 -80 -53 -131t-136 -51zM948 1178q-82 0 -135 51.5t-53 130.5q0 78 53 129t135 51q83 0 137 -51t54 -129q0 -79 -54 -130.5t-137 -51.5z" />
    <glyph glyph-name="igrave" unicode="&#xec;" horiz-adv-x="636" 
d="M127 1057h393v-1057h-393v1057zM-104 1540l352 2l235 -362h-276z" />
    <glyph glyph-name="iacute" unicode="&#xed;" horiz-adv-x="636" 
d="M119 1057h395v-1057h-395v1057zM389 1542l350 -2l-309 -360h-276z" />
    <glyph glyph-name="icircumflex" unicode="&#xee;" horiz-adv-x="636" 
d="M121 1057h393v-1057h-393v1057zM182 1182h-266l211 360h381l213 -362l-266 2l-138 213z" />
    <glyph glyph-name="idieresis" unicode="&#xef;" horiz-adv-x="636" 
d="M121 1057h393v-1057h-393v1057zM41 1178q-83 0 -137 51.5t-54 130.5q0 78 54 129t137 51t135.5 -51t52.5 -129q0 -80 -52.5 -131t-135.5 -51zM594 1178q-82 0 -135 51.5t-53 130.5q0 78 53 129t135 51q83 0 136.5 -51t53.5 -129q0 -80 -53.5 -131t-136.5 -51z" />
    <glyph glyph-name="ntilde" unicode="&#xf1;" 
d="M117 0v1057h381v-152q59 91 143.5 142t185.5 51q162 0 266.5 -118.5t104.5 -301.5v-678h-395v588q0 74 -37.5 120t-101.5 46q-65 0 -108.5 -48t-43.5 -124v-582h-395zM395 1229l-180 90q30 90 111 151.5t174 61.5q49 0 96.5 -16.5t78 -37t65 -37t59.5 -16.5q32 0 60 21
t46 55l182 -92q-30 -89 -114 -150t-182 -61q-52 0 -100.5 16.5t-77.5 37t-61.5 37t-57.5 16.5q-57 0 -99 -76z" />
    <glyph glyph-name="ograve" unicode="&#xf2;" horiz-adv-x="1345" 
d="M674 1098q267 0 432.5 -157.5t165.5 -412.5t-165.5 -412t-432.5 -157q-269 0 -434.5 157t-165.5 412t166 412.5t434 157.5zM674 303q91 0 148 62.5t57 162.5t-57 163t-148 63q-92 0 -148.5 -63t-56.5 -163t56.5 -162.5t148.5 -62.5zM246 1540l350 2l235 -362h-276z" />
    <glyph glyph-name="oacute" unicode="&#xf3;" horiz-adv-x="1345" 
d="M674 1098q267 0 432.5 -157.5t165.5 -412.5t-165.5 -412t-432.5 -157q-269 0 -434.5 157t-165.5 412t166 412.5t434 157.5zM674 303q91 0 148 62.5t57 162.5t-57 163t-148 63q-92 0 -148.5 -63t-56.5 -163t56.5 -162.5t148.5 -62.5zM743 1542l353 -2l-312 -360h-276z" />
    <glyph glyph-name="ocircumflex" unicode="&#xf4;" horiz-adv-x="1345" 
d="M674 303q91 0 148 62.5t57 162.5t-57 163t-148 63q-92 0 -148.5 -63t-56.5 -163t56.5 -162.5t148.5 -62.5zM674 1098q267 0 432.5 -157.5t165.5 -412.5t-165.5 -412t-432.5 -157q-269 0 -434.5 157t-165.5 412t166 412.5t434 157.5zM674 1395l-135 -213h-267l211 360h381
l211 -362l-266 2z" />
    <glyph glyph-name="otilde" unicode="&#xf5;" horiz-adv-x="1345" 
d="M674 303q91 0 148 62.5t57 162.5t-57 163t-148 63q-92 0 -148.5 -63t-56.5 -163t56.5 -162.5t148.5 -62.5zM674 1098q267 0 432.5 -157.5t165.5 -412.5t-165.5 -412t-432.5 -157q-269 0 -434.5 157t-165.5 412t166 412.5t434 157.5zM430 1229l-180 90q31 90 111.5 151.5
t173.5 61.5q49 0 96.5 -16.5t78 -37t65 -37t59.5 -16.5q32 0 60 21t46 55l184 -92q-31 -89 -116 -150t-183 -61q-51 0 -99.5 16.5t-78 37t-62 37t-57.5 16.5q-56 0 -98 -76z" />
    <glyph glyph-name="odieresis" unicode="&#xf6;" horiz-adv-x="1345" 
d="M674 1098q267 0 432.5 -157.5t165.5 -412.5t-165.5 -412t-432.5 -157q-269 0 -434.5 157t-165.5 412t166 412.5t434 157.5zM674 303q91 0 148 62.5t57 162.5t-57 163t-148 63q-92 0 -148.5 -63t-56.5 -163t56.5 -162.5t148.5 -62.5zM395 1178q-82 0 -135 51.5t-53 130.5
q0 78 53 129t135 51q83 0 137 -51t54 -129q0 -79 -54 -130.5t-137 -51.5zM950 1178q-83 0 -136.5 51t-53.5 131q0 78 53.5 129t136.5 51t136 -51t53 -129q0 -80 -53 -131t-136 -51z" />
    <glyph glyph-name="divide" unicode="&#xf7;" horiz-adv-x="1069" 
d="M535 41q-81 0 -134 50.5t-53 127.5t53 127.5t134 50.5t133.5 -50.5t52.5 -127.5t-52.5 -127.5t-133.5 -50.5zM74 791h921v-285h-921v285zM535 889q-81 0 -134 50.5t-53 127.5q0 78 52.5 128t134.5 50t134 -50t52 -128q0 -77 -52.5 -127.5t-133.5 -50.5z" />
    <glyph glyph-name="oslash" unicode="&#xf8;" horiz-adv-x="1380" 
d="M690 821q-119 0 -195.5 -81.5t-76.5 -211.5q0 -127 74 -204l256 491q-21 6 -58 6zM690 238q120 0 195.5 80.5t75.5 209.5q0 118 -66 197l-252 -483q14 -4 47 -4zM506 -18l-74 -146h-199l109 207q-127 73 -197.5 198.5t-70.5 286.5q0 255 170 412.5t446 157.5
q101 0 193 -25l80 156h198l-117 -221q124 -73 192.5 -197.5t68.5 -282.5q0 -255 -170 -412t-445 -157q-90 0 -184 23z" />
    <glyph glyph-name="ugrave" unicode="&#xf9;" 
d="M1178 0h-379v152q-60 -91 -145.5 -142t-186.5 -51q-163 0 -267 118.5t-104 303.5v676h396v-586q0 -75 37.5 -121.5t101.5 -46.5q65 0 108 49t43 125v580h396v-1057zM215 1540h350l236 -360h-277z" />
    <glyph glyph-name="uacute" unicode="&#xfa;" 
d="M1178 0h-379v152q-60 -91 -145.5 -142t-186.5 -51q-163 0 -267 118.5t-104 303.5v676h396v-586q0 -75 37.5 -121.5t101.5 -46.5q65 0 108 49t43 125v580h396v-1057zM709 1540h350l-309 -360h-277z" />
    <glyph glyph-name="ucircumflex" unicode="&#xfb;" 
d="M1178 0h-379v152q-60 -91 -145.5 -142t-186.5 -51q-163 0 -267 118.5t-104 303.5v676h396v-586q0 -75 37.5 -121.5t101.5 -46.5q65 0 108 49t43 125v580h396v-1057zM502 1180h-266l210 362h381l213 -362h-268l-135 215z" />
    <glyph glyph-name="udieresis" unicode="&#xfc;" 
d="M1178 0h-379v152q-60 -91 -145.5 -142t-186.5 -51q-163 0 -267 118.5t-104 303.5v676h396v-586q0 -75 37.5 -121.5t101.5 -46.5q65 0 108 49t43 125v580h396v-1057zM360 1178q-83 0 -136.5 51t-53.5 129q0 80 53.5 131t136.5 51t136 -51t53 -131q0 -78 -53 -129t-136 -51
zM913 1178q-82 0 -135 51t-53 129q0 79 53 130.5t135 51.5q83 0 137 -51.5t54 -130.5q0 -78 -54 -129t-137 -51z" />
    <glyph glyph-name="yacute" unicode="&#xfd;" horiz-adv-x="1298" 
d="M209 -444v276q43 -16 113 -16q89 0 139 37.5t80 128.5l-523 1075h428l244 -580l184 580h406l-401 -1106q-82 -226 -187 -330t-256 -104q-124 0 -227 39zM485 1180l236 362l350 -2l-309 -360h-277z" />
    <glyph glyph-name="ydieresis" unicode="&#xff;" horiz-adv-x="1298" 
d="M209 -444v276q43 -16 113 -16q89 0 139 37.5t80 128.5l-523 1075h428l244 -580l184 580h406l-401 -1106q-82 -226 -187 -330t-256 -104q-124 0 -227 39zM373 1178q-82 0 -135.5 51.5t-53.5 130.5q0 78 53.5 129t135.5 51q83 0 136.5 -51t53.5 -129q0 -80 -53.5 -131
t-136.5 -51zM928 1178q-83 0 -137 51.5t-54 130.5q0 78 54 129t137 51t135.5 -51t52.5 -129q0 -80 -52.5 -131t-135.5 -51z" />
    <glyph glyph-name="Amacron" unicode="&#x100;" horiz-adv-x="1601" 
d="M801 1092l-172 -570h346zM545 211l-62 -211h-465l459 1466h647l459 -1466h-465l-61 211h-512zM438 1884h727v-227h-727v227z" />
    <glyph glyph-name="amacron" unicode="&#x101;" horiz-adv-x="1392" 
d="M674 303q89 0 147 64t58 161q0 98 -58 162t-147 64q-90 0 -147.5 -63.5t-57.5 -162.5q0 -97 57.5 -161t147.5 -64zM881 922v135h393v-1057h-393v135q-121 -176 -326 -176q-215 0 -348 157.5t-133 411.5t133 412t348 158q205 0 326 -176zM274 1454h727v-227h-727v227z" />
    <glyph glyph-name="Abreve" unicode="&#x102;" horiz-adv-x="1601" 
d="M801 1092l-172 -570h346zM545 211l-62 -211h-465l459 1466h647l459 -1466h-465l-61 211h-512zM897 1931h233q0 -146 -89 -233.5t-240 -87.5t-240.5 88.5t-89.5 232.5h234q0 -54 26.5 -87.5t69.5 -33.5t69.5 33.5t26.5 87.5z" />
    <glyph glyph-name="abreve" unicode="&#x103;" horiz-adv-x="1392" 
d="M674 303q89 0 147 64t58 161q0 98 -58 162t-147 64q-90 0 -147.5 -63.5t-57.5 -162.5q0 -97 57.5 -161t147.5 -64zM881 922v135h393v-1057h-393v135q-121 -176 -326 -176q-215 0 -348 157.5t-133 411.5t133 412t348 158q205 0 326 -176zM733 1542h234q0 -362 -328 -362
q-171 0 -250.5 96t-79.5 266h234q0 -72 26.5 -117t69.5 -45q41 0 67.5 45t26.5 117z" />
    <glyph glyph-name="Aogonek" unicode="&#x104;" horiz-adv-x="1667" 
d="M801 1092l-172 -570h346zM1354 0h-236l-61 211h-512l-62 -211h-465l459 1466h647l459 -1466h-8q-205 -69 -205 -197q0 -86 77 -140.5t202 -57.5v-176q-221 0 -359.5 90.5t-138.5 232.5q0 82 54 147t149 101z" />
    <glyph glyph-name="aogonek" unicode="&#x105;" horiz-adv-x="1454" 
d="M674 303q89 0 147 64t58 161q0 98 -58 162t-147 64q-90 0 -147.5 -63.5t-57.5 -162.5q0 -97 57.5 -161t147.5 -64zM1042 0h-161v135q-121 -176 -326 -176q-215 0 -348 157.5t-133 411.5t133 412t348 158q205 0 326 -176v135h393v-1057h-10q-207 -69 -207 -197
q0 -86 77.5 -140.5t202.5 -57.5v-176q-221 0 -359 90.5t-138 232.5q0 82 53.5 147t148.5 101z" />
    <glyph glyph-name="Cacute" unicode="&#x106;" horiz-adv-x="1714" 
d="M891 326q118 0 211 72.5t119 185.5l413 -47q-16 -168 -118 -302.5t-268.5 -210t-366.5 -75.5q-172 0 -321 59t-254.5 162t-165.5 249t-60 314t60 314t165.5 249.5t254 162.5t319.5 59q197 0 362 -76.5t268 -212.5t121 -307l-411 -43q-23 114 -115 188t-211 74
q-164 0 -266.5 -113t-102.5 -295q0 -181 102.5 -294t264.5 -113zM936 1931h354l-301 -321h-289z" />
    <glyph glyph-name="cacute" unicode="&#x107;" horiz-adv-x="1292" 
d="M666 1098q143 0 265.5 -55.5t200.5 -155.5t93 -225l-363 -48q-15 68 -69 112t-123 44q-87 0 -144 -68.5t-57 -173.5q0 -104 56.5 -172.5t144.5 -68.5q69 0 123 43.5t69 111.5l363 -43q-25 -191 -184 -315.5t-375 -124.5q-167 0 -302.5 73t-212.5 203.5t-77 292.5
q0 247 167.5 408.5t424.5 161.5zM723 1542l350 -2l-309 -360h-277z" />
    <glyph glyph-name="Ccircumflex" unicode="&#x108;" horiz-adv-x="1714" 
d="M891 326q118 0 211 72.5t119 185.5l413 -47q-16 -168 -118 -302.5t-268.5 -210t-366.5 -75.5q-172 0 -321 59t-254.5 162t-165.5 249t-60 314t60 314t165.5 249.5t254 162.5t319.5 59q197 0 362 -76.5t268 -212.5t121 -307l-411 -43q-23 114 -115 188t-211 74
q-164 0 -266.5 -113t-102.5 -295q0 -181 102.5 -294t264.5 -113zM733 1610h-258l203 321h381l203 -321h-258l-136 174z" />
    <glyph glyph-name="ccircumflex" unicode="&#x109;" horiz-adv-x="1292" 
d="M666 1098q143 0 265.5 -55.5t200.5 -155.5t93 -225l-363 -48q-15 68 -69 112t-123 44q-87 0 -144 -68.5t-57 -173.5q0 -104 56.5 -172.5t144.5 -68.5q69 0 123 43.5t69 111.5l363 -43q-25 -191 -184 -315.5t-375 -124.5q-167 0 -302.5 73t-212.5 203.5t-77 292.5
q0 247 167.5 408.5t424.5 161.5zM516 1182h-264l211 360h381l211 -362l-267 2l-135 213z" />
    <glyph glyph-name="Cdotaccent" unicode="&#x10a;" horiz-adv-x="1714" 
d="M891 326q118 0 211 72.5t119 185.5l413 -47q-16 -168 -118 -302.5t-268.5 -210t-366.5 -75.5q-172 0 -321 59t-254.5 162t-165.5 249t-60 314t60 314t165.5 249.5t254 162.5t319.5 59q197 0 362 -76.5t268 -212.5t121 -307l-411 -43q-23 114 -115 188t-211 74
q-164 0 -266.5 -113t-102.5 -295q0 -181 102.5 -294t264.5 -113zM868 1610q-89 0 -146.5 54.5t-57.5 139.5q0 86 57.5 140.5t146.5 54.5q91 0 148 -54.5t57 -140.5q0 -85 -57.5 -139.5t-147.5 -54.5z" />
    <glyph glyph-name="cdotaccent" unicode="&#x10b;" horiz-adv-x="1292" 
d="M666 1098q143 0 265.5 -55.5t200.5 -155.5t93 -225l-363 -48q-15 68 -69 112t-123 44q-87 0 -144 -68.5t-57 -173.5q0 -104 56.5 -172.5t144.5 -68.5q69 0 123 43.5t69 111.5l363 -43q-25 -191 -184 -315.5t-375 -124.5q-167 0 -302.5 73t-212.5 203.5t-77 292.5
q0 247 167.5 408.5t424.5 161.5zM651 1212q-89 0 -147 55.5t-58 141.5t58 141.5t147 55.5t147 -55.5t58 -141.5t-58 -141.5t-147 -55.5z" />
    <glyph glyph-name="Ccaron" unicode="&#x10c;" horiz-adv-x="1714" 
d="M891 326q118 0 211 72.5t119 185.5l413 -47q-16 -168 -118 -302.5t-268.5 -210t-366.5 -75.5q-172 0 -321 59t-254.5 162t-165.5 249t-60 314t60 314t165.5 249.5t254 162.5t319.5 59q197 0 362 -76.5t268 -212.5t121 -307l-411 -43q-23 114 -115 188t-211 74
q-164 0 -266.5 -113t-102.5 -295q0 -181 102.5 -294t264.5 -113zM1004 1972h266l-211 -360h-381l-211 360h266l135 -213z" />
    <glyph glyph-name="ccaron" unicode="&#x10d;" horiz-adv-x="1292" 
d="M666 1098q143 0 265.5 -55.5t200.5 -155.5t93 -225l-363 -48q-15 68 -69 112t-123 44q-87 0 -144 -68.5t-57 -173.5q0 -104 56.5 -172.5t144.5 -68.5q69 0 123 43.5t69 111.5l363 -43q-25 -191 -184 -315.5t-375 -124.5q-167 0 -302.5 73t-212.5 203.5t-77 292.5
q0 247 167.5 408.5t424.5 161.5zM788 1542h267l-213 -362h-381l-211 362h266l135 -215z" />
    <glyph glyph-name="Dcaron" unicode="&#x10e;" horiz-adv-x="1667" 
d="M1145 733q0 182 -108.5 292t-286.5 110h-177v-803h177q178 0 286.5 109.5t108.5 291.5zM750 0h-607v1466h607q249 0 440 -91t295 -257.5t104 -384.5t-104 -384.5t-295 -257.5t-440 -91zM764 1757l135 215h266l-211 -362h-381l-211 362h267z" />
    <glyph glyph-name="dcaron" unicode="&#x10f;" horiz-adv-x="1693" 
d="M674 752q-90 0 -147.5 -63.5t-57.5 -160.5t58 -159t147 -62t147 63t58 158q0 97 -58 160.5t-147 63.5zM74 528q0 254 131 412t342 158q191 0 315 -152v582h393v-1528h-393v111q-120 -152 -315 -152q-211 0 -342 157.5t-131 411.5zM1475 1184q-65 0 -105.5 47.5
t-40.5 120.5q0 77 45.5 124.5t120.5 47.5q86 0 139.5 -60.5t53.5 -158.5q0 -108 -52.5 -219t-130.5 -171l-157 43q55 46 91 109.5t36 116.5z" />
    <glyph glyph-name="Dcroat" unicode="&#x110;" horiz-adv-x="1722" 
d="M199 903v563h604q249 0 440 -91t295 -257.5t104 -384.5t-104 -384.5t-295 -257.5t-440 -91h-604v664h-181v239h181zM1200 733q0 182 -109 292t-288 110h-176v-232h211v-239h-211v-332h176q179 0 288 109.5t109 291.5z" />
    <glyph glyph-name="dcroat" unicode="&#x111;" horiz-adv-x="1413" 
d="M674 752q-90 0 -147.5 -63.5t-57.5 -160.5t58 -159t147 -62t147 63t58 158q0 97 -58 160.5t-147 63.5zM862 946v236h-291v200h291v146h393v-146h142v-200h-142v-1182h-393v111q-120 -152 -315 -152q-211 0 -342 157.5t-131 411.5t131 412t342 158q191 0 315 -152z" />
    <glyph glyph-name="Emacron" unicode="&#x112;" horiz-adv-x="1288" 
d="M571 598v-250h639v-348h-1067v1466h1047v-346h-619v-223h537v-299h-537zM1032 1884v-227h-727v227h727z" />
    <glyph glyph-name="emacron" unicode="&#x113;" horiz-adv-x="1325" 
d="M477 629h377q-5 77 -58.5 131.5t-131.5 54.5q-74 0 -123 -50t-64 -136zM74 532q0 251 167.5 408.5t430.5 157.5q262 0 420.5 -157t158.5 -413q0 -66 -4 -106h-768q21 -84 73.5 -131t131.5 -47q66 0 113.5 32t66.5 84l348 -45q-35 -156 -189 -256t-359 -100
q-262 0 -426 158.5t-164 414.5zM309 1454h727v-227h-727v227z" />
    <glyph glyph-name="Ebreve" unicode="&#x114;" horiz-adv-x="1288" 
d="M571 598v-250h639v-348h-1067v1466h1047v-346h-619v-223h537v-299h-537zM764 1931h231q0 -146 -88 -233.5t-239 -87.5t-240.5 88.5t-89.5 232.5h233q0 -54 27 -87.5t70 -33.5t69.5 33.5t26.5 87.5z" />
    <glyph glyph-name="ebreve" unicode="&#x115;" horiz-adv-x="1325" 
d="M477 629h377q-5 77 -58.5 131.5t-131.5 54.5q-74 0 -123 -50t-64 -136zM74 532q0 251 167.5 408.5t430.5 157.5q262 0 420.5 -157t158.5 -413q0 -66 -4 -106h-768q21 -84 73.5 -131t131.5 -47q66 0 113.5 32t66.5 84l348 -45q-35 -156 -189 -256t-359 -100
q-262 0 -426 158.5t-164 414.5zM768 1542h233q0 -170 -79 -266t-250 -96t-250.5 96t-79.5 266h233q0 -72 27 -117t70 -45t69.5 45t26.5 117z" />
    <glyph glyph-name="Edotaccent" unicode="&#x116;" horiz-adv-x="1288" 
d="M571 598v-250h639v-348h-1067v1466h1047v-346h-619v-223h537v-299h-537zM668 1610q-89 0 -147 54.5t-58 139.5q0 86 57.5 140.5t147.5 54.5q91 0 147.5 -54.5t56.5 -140.5q0 -85 -57 -139.5t-147 -54.5z" />
    <glyph glyph-name="edotaccent" unicode="&#x117;" horiz-adv-x="1325" 
d="M477 629h377q-5 77 -58.5 131.5t-131.5 54.5q-74 0 -123 -50t-64 -136zM74 532q0 251 167.5 408.5t430.5 157.5q262 0 420.5 -157t158.5 -413q0 -66 -4 -106h-768q21 -84 73.5 -131t131.5 -47q66 0 113.5 32t66.5 84l348 -45q-35 -156 -189 -256t-359 -100
q-262 0 -426 158.5t-164 414.5zM672 1212q-89 0 -147 55.5t-58 141.5t58 141.5t147 55.5t147 -55.5t58 -141.5t-58 -141.5t-147 -55.5z" />
    <glyph glyph-name="Eogonek" unicode="&#x118;" horiz-adv-x="1288" 
d="M915 0h-772v1466h1047v-346h-619v-223h537v-299h-537v-250h639v-348h-73q-207 -69 -207 -197q0 -87 77 -142t203 -56v-176q-221 0 -359 90.5t-138 232.5q0 82 53.5 147t148.5 101z" />
    <glyph glyph-name="eogonek" unicode="&#x119;" horiz-adv-x="1325" 
d="M477 629h377q-5 77 -58.5 131.5t-131.5 54.5q-74 0 -123 -50t-64 -136zM618 -39q-244 14 -394 170.5t-150 400.5q0 251 167.5 408.5t430.5 157.5q262 0 420.5 -157t158.5 -413q0 -66 -4 -106h-768q21 -84 73.5 -131t131.5 -47q66 0 113.5 32t66.5 84l348 -45
q-25 -105 -105 -186.5t-200 -126.5l15 -2q-211 -69 -211 -199q0 -86 76.5 -140.5t201.5 -57.5v-176q-221 0 -359 90.5t-138 232.5q0 131 126 211z" />
    <glyph glyph-name="Ecaron" unicode="&#x11a;" horiz-adv-x="1288" 
d="M571 598v-250h639v-348h-1067v1466h1047v-346h-619v-223h537v-299h-537zM803 1972h266l-211 -362h-381l-211 362h266l136 -215z" />
    <glyph glyph-name="ecaron" unicode="&#x11b;" horiz-adv-x="1325" 
d="M477 629h377q-5 77 -58.5 131.5t-131.5 54.5q-74 0 -123 -50t-64 -136zM74 532q0 251 167.5 408.5t430.5 157.5q262 0 420.5 -157t158.5 -413q0 -66 -4 -106h-768q21 -84 73.5 -131t131.5 -47q66 0 113.5 32t66.5 84l348 -45q-35 -156 -189 -256t-359 -100
q-262 0 -426 158.5t-164 414.5zM672 1327l135 215h266l-211 -362h-381l-211 362h267z" />
    <glyph glyph-name="Gcircumflex" unicode="&#x11c;" horiz-adv-x="1769" 
d="M920 326q137 0 236 76t106 190h-375v254h799q20 -192 -29 -359t-152.5 -285t-259 -185.5t-342.5 -67.5q-176 0 -329 59t-261.5 162t-170.5 249t-62 314t62 314t170.5 249.5t261.5 162.5t329 59q274 0 473.5 -145t247.5 -374l-410 -69q-26 92 -114.5 151.5t-198.5 59.5
q-164 0 -270.5 -115t-106.5 -293q0 -177 111.5 -292t284.5 -115zM768 1610h-258l203 321h381l202 -321h-258l-135 174z" />
    <glyph glyph-name="gcircumflex" unicode="&#x11d;" horiz-adv-x="1372" 
d="M674 307q89 0 147 63t58 158q0 98 -58 162t-147 64q-90 0 -147.5 -63.5t-57.5 -162.5q0 -96 57.5 -158.5t147.5 -62.5zM659 -213q90 0 146.5 63.5t56.5 169.5v115q-122 -141 -317 -141q-205 0 -338 149t-133 385q0 252 133 411t338 159q197 0 317 -152v111h393v-1051
q0 -236 -159 -377t-420 -141q-226 0 -384 119.5t-177 304.5l344 37q13 -70 69.5 -116t130.5 -46zM666 1395l-138 -213h-264l211 360h381l211 -362l-266 2z" />
    <glyph glyph-name="Gbreve" unicode="&#x11e;" horiz-adv-x="1769" 
d="M920 326q137 0 236 76t106 190h-375v254h799q20 -192 -29 -359t-152.5 -285t-259 -185.5t-342.5 -67.5q-176 0 -329 59t-261.5 162t-170.5 249t-62 314t62 314t170.5 249.5t261.5 162.5t329 59q274 0 473.5 -145t247.5 -374l-410 -69q-26 92 -114.5 151.5t-198.5 59.5
q-164 0 -270.5 -115t-106.5 -293q0 -177 111.5 -292t284.5 -115zM999 1931h234q0 -146 -89.5 -233.5t-240.5 -87.5t-239.5 88.5t-88.5 232.5h232q0 -54 26.5 -87.5t69.5 -33.5t69.5 33.5t26.5 87.5z" />
    <glyph glyph-name="gbreve" unicode="&#x11f;" horiz-adv-x="1372" 
d="M674 307q89 0 147 63t58 158q0 98 -58 162t-147 64q-90 0 -147.5 -63.5t-57.5 -162.5q0 -96 57.5 -158.5t147.5 -62.5zM659 -213q90 0 146.5 63.5t56.5 169.5v115q-122 -141 -317 -141q-205 0 -338 149t-133 385q0 252 133 411t338 159q197 0 317 -152v111h393v-1051
q0 -236 -159 -377t-420 -141q-226 0 -384 119.5t-177 304.5l344 37q13 -70 69.5 -116t130.5 -46zM760 1542h233q0 -170 -79 -266t-250 -96q-170 0 -249 96t-79 266h233q0 -72 27 -117t68 -45q43 0 69.5 45t26.5 117z" />
    <glyph glyph-name="Gdotaccent" unicode="&#x120;" horiz-adv-x="1769" 
d="M920 326q137 0 236 76t106 190h-375v254h799q20 -192 -29 -359t-152.5 -285t-259 -185.5t-342.5 -67.5q-176 0 -329 59t-261.5 162t-170.5 249t-62 314t62 314t170.5 249.5t261.5 162.5t329 59q274 0 473.5 -145t247.5 -374l-410 -69q-26 92 -114.5 151.5t-198.5 59.5
q-164 0 -270.5 -115t-106.5 -293q0 -177 111.5 -292t284.5 -115zM903 1610q-89 0 -146 54.5t-59 139.5q2 86 59 140.5t146 54.5q91 0 148 -54.5t57 -140.5q0 -85 -57.5 -139.5t-147.5 -54.5z" />
    <glyph glyph-name="gdotaccent" unicode="&#x121;" horiz-adv-x="1372" 
d="M674 307q89 0 147 63t58 158q0 98 -58 162t-147 64q-90 0 -147.5 -63.5t-57.5 -162.5q0 -96 57.5 -158.5t147.5 -62.5zM659 -213q90 0 146.5 63.5t56.5 169.5v115q-122 -141 -317 -141q-205 0 -338 149t-133 385q0 252 133 411t338 159q197 0 317 -152v111h393v-1051
q0 -236 -159 -377t-420 -141q-226 0 -384 119.5t-177 304.5l344 37q13 -70 69.5 -116t130.5 -46zM664 1212q-89 0 -147 55.5t-58 141.5t58 141.5t147 55.5t146.5 -55.5t57.5 -141.5t-57.5 -141.5t-146.5 -55.5z" />
    <glyph glyph-name="Gcommaaccent" unicode="&#x122;" horiz-adv-x="1769" 
d="M920 326q137 0 236 76t106 190h-375v254h799q20 -192 -29 -359t-152.5 -285t-259 -185.5t-342.5 -67.5q-176 0 -329 59t-261.5 162t-170.5 249t-62 314t62 314t170.5 249.5t261.5 162.5t329 59q274 0 473.5 -145t247.5 -374l-410 -69q-26 92 -114.5 151.5t-198.5 59.5
q-164 0 -270.5 -115t-106.5 -293q0 -177 111.5 -292t284.5 -115zM885 -487q-65 0 -105.5 46t-40.5 119q0 78 45.5 125t120.5 47q86 0 139.5 -60.5t53.5 -158.5q0 -107 -52.5 -217t-132.5 -170l-155 43q55 44 91 108t36 118z" />
    <glyph glyph-name="gcommaaccent" unicode="&#x123;" horiz-adv-x="1372" 
d="M674 307q89 0 147 63t58 158q0 98 -58 162t-147 64q-90 0 -147.5 -63.5t-57.5 -162.5q0 -96 57.5 -158.5t147.5 -62.5zM659 -213q90 0 146.5 63.5t56.5 169.5v115q-122 -141 -317 -141q-205 0 -338 149t-133 385q0 252 133 411t338 159q197 0 317 -152v111h393v-1051
q0 -236 -159 -377t-420 -141q-226 0 -384 119.5t-177 304.5l344 37q13 -70 69.5 -116t130.5 -46zM682 1503q64 0 103.5 -46.5t39.5 -119.5q0 -78 -45.5 -125t-120.5 -47q-86 0 -138 60t-52 159q0 108 51.5 218t130.5 170l158 -43q-55 -44 -91 -108t-36 -118z" />
    <glyph glyph-name="Itilde" unicode="&#x128;" horiz-adv-x="724" 
d="M143 0v1466h445v-1466h-445zM106 1679l-182 97q31 90 111.5 151.5t173.5 61.5q63 0 121.5 -27.5t103 -54.5t74.5 -27q32 0 60.5 22t47.5 60l183 -96q-31 -89 -115 -150t-182 -61q-52 0 -100.5 16.5t-78 36.5t-61.5 36.5t-55 16.5q-59 0 -101 -82z" />
    <glyph glyph-name="itilde" unicode="&#x129;" horiz-adv-x="643" 
d="M111 0v1057h393v-1057h-393zM66 1229l-183 90q31 91 112 152t175 61q49 0 96.5 -16.5t78 -37t65 -37t59.5 -16.5q30 0 58 21t46 55l185 -92q-31 -89 -115 -150t-182 -61q-52 0 -100.5 16.5t-78.5 37t-62.5 37t-57.5 16.5q-57 0 -96 -76z" />
    <glyph glyph-name="Imacron" unicode="&#x12a;" horiz-adv-x="724" 
d="M139 1466h445v-1466h-445v1466zM725 1884v-227h-727v227h727z" />
    <glyph glyph-name="imacron" unicode="&#x12b;" horiz-adv-x="657" 
d="M131 1057h393v-1057h-393v1057zM692 1454v-227h-727v227h727z" />
    <glyph glyph-name="Iogonek" unicode="&#x12e;" horiz-adv-x="770" 
d="M360 0h-217v1466h445v-1466h-6q-207 -69 -207 -197q0 -86 77 -141.5t201 -56.5v-176q-222 0 -358.5 90t-136.5 233q0 83 53 148t149 100z" />
    <glyph glyph-name="iogonek" unicode="&#x12f;" horiz-adv-x="688" 
d="M305 0h-168v1057h395v-1057h-8q-207 -70 -207 -197q0 -86 77.5 -141.5t203.5 -56.5v-176q-222 0 -360 90t-138 233q0 82 54.5 147t150.5 101zM336 1165q-96 0 -158.5 60t-62.5 153q0 92 62.5 151.5t158.5 59.5q95 0 157 -59.5t62 -151.5q0 -93 -61.5 -153t-157.5 -60z
" />
    <glyph glyph-name="Idotaccent" unicode="&#x130;" horiz-adv-x="731" 
d="M143 1466h445v-1466h-445v1466zM367 1610q-90 0 -147.5 54.5t-57.5 139.5q0 86 57.5 140.5t147.5 54.5t146.5 -54.5t55.5 -140.5q0 -85 -56.5 -139.5t-145.5 -54.5z" />
    <glyph glyph-name="dotlessi" unicode="&#x131;" horiz-adv-x="628" 
d="M117 1057h395v-1057h-395v1057z" />
    <glyph glyph-name="IJ" unicode="&#x132;" horiz-adv-x="1716" 
d="M143 1466h445v-1466h-445v1466zM1128 537v929h445v-989q0 -230 -148.5 -374t-377.5 -144q-179 0 -310 41v332q80 -25 181 -25q94 0 152 63t58 167z" />
    <glyph glyph-name="ij" unicode="&#x133;" horiz-adv-x="1308" 
d="M139 1057h396v-1057h-396v1057zM774 -20v1077h395v-1129q0 -186 -109 -298.5t-286 -112.5q-143 0 -256 37v303q67 -13 117 -13q63 1 101 38.5t38 97.5zM338 1165q-96 0 -158.5 60t-62.5 153q0 92 62.5 151.5t158.5 59.5q95 0 157 -59.5t62 -151.5q0 -93 -61.5 -153
t-157.5 -60zM971 1165q-96 0 -157.5 60t-61.5 153q0 92 62 151.5t157 59.5q97 0 158 -59.5t61 -151.5q0 -94 -61 -153.5t-158 -59.5z" />
    <glyph glyph-name="Kcommaaccent" unicode="&#x136;" horiz-adv-x="1542" 
d="M143 0v1466h445v-561l413 561h525l-545 -692l549 -774h-524l-418 627v-627h-445zM764 -487q-64 0 -105 47.5t-41 120.5q0 78 46.5 125t121.5 47q85 0 138 -61t53 -159q0 -109 -51.5 -218t-130.5 -169l-158 43q55 44 91 107.5t36 116.5z" />
    <glyph glyph-name="kcommaaccent" unicode="&#x137;" horiz-adv-x="1302" 
d="M117 0v1528h395v-846l307 375h463l-424 -502l432 -555h-465l-313 424v-424h-395zM633 -483q-64 0 -105 47.5t-41 120.5q0 78 46 125t122 47q85 0 138 -60.5t53 -158.5q0 -109 -51.5 -218.5t-130.5 -169.5l-158 43q55 44 91 107.5t36 116.5z" />
    <glyph glyph-name="Lacute" unicode="&#x139;" horiz-adv-x="1191" 
d="M1124 0h-981v1466h445v-1089h536v-377zM430 1931h354l-301 -321h-288z" />
    <glyph glyph-name="lacute" unicode="&#x13a;" horiz-adv-x="843" 
d="M117 1528h395v-1528h-395v1528zM375 1952h352l-299 -350h-283z" />
    <glyph glyph-name="Lcommaaccent" unicode="&#x13b;" horiz-adv-x="1191" 
d="M1124 377v-377h-981v1466h445v-1089h536zM606 -487q-65 0 -105 47.5t-40 120.5q0 78 45.5 125t120.5 47q86 0 139 -61t53 -159q0 -108 -52 -217.5t-132 -169.5l-156 43q54 45 90.5 108.5t36.5 115.5z" />
    <glyph glyph-name="lcommaaccent" unicode="&#x13c;" horiz-adv-x="634" 
d="M117 1528h395v-1528h-395v1528zM285 -487q-64 0 -105 47.5t-41 120.5q0 78 46 125t122 47q85 0 138 -61t53 -159q0 -108 -51.5 -217.5t-131.5 -171.5l-157 45q55 44 91 107.5t36 116.5z" />
    <glyph glyph-name="Lcaron" unicode="&#x13d;" horiz-adv-x="1202" 
d="M1124 0h-981v1466h445v-1089h536v-377zM840 1190q-66 0 -106 47t-40 121q0 77 45.5 123.5t120.5 46.5q86 0 139.5 -60t53.5 -157q0 -108 -52.5 -218.5t-132.5 -170.5l-155 43q55 47 91 109.5t36 115.5z" />
    <glyph glyph-name="lcaron" unicode="&#x13e;" horiz-adv-x="974" 
d="M117 1528h395v-1528h-395v1528zM756 1184q-64 0 -104 47.5t-40 120.5q0 77 45.5 124.5t120.5 47.5q86 0 138.5 -60.5t52.5 -158.5q0 -109 -52 -219.5t-131 -170.5l-157 43q55 46 91 109.5t36 116.5z" />
    <glyph glyph-name="Lslash" unicode="&#x141;" horiz-adv-x="1067" 
d="M18 608l209 133v725h445v-442l497 315v-327l-497 -316v-319h536v-377h-981v414l-209 -133v327z" />
    <glyph glyph-name="lslash" unicode="&#x142;" horiz-adv-x="1011" 
d="M965 920l-263 -168v-752h-393v500l-262 -168v327l262 168v701h393v-449l263 168v-327z" />
    <glyph glyph-name="Nacute" unicode="&#x143;" horiz-adv-x="1665" 
d="M604 1466l504 -931v931h414v-1466h-461l-504 928v-928h-414v1466h461zM903 1931h354l-301 -321h-288z" />
    <glyph glyph-name="nacute" unicode="&#x144;" 
d="M117 1057h381v-152q59 91 143.5 142t185.5 51q162 0 266.5 -118.5t104.5 -301.5v-678h-395v588q0 74 -37.5 120t-101.5 46q-65 0 -108.5 -48t-43.5 -124v-582h-395v1057zM780 1542l350 -2l-309 -360h-276z" />
    <glyph glyph-name="Ncommaaccent" unicode="&#x145;" horiz-adv-x="1665" 
d="M604 1466l504 -931v931h414v-1466h-461l-504 928v-928h-414v1466h461zM811 -487q-65 0 -105 47.5t-40 120.5q0 77 45 123t120 46q86 0 139.5 -60t53.5 -157q0 -109 -52 -219t-132 -170l-156 43q55 47 91 110t36 116z" />
    <glyph glyph-name="ncommaaccent" unicode="&#x146;" 
d="M117 1057h381v-152q59 91 143.5 142t185.5 51q162 0 266.5 -118.5t104.5 -301.5v-678h-395v588q0 74 -37.5 120t-101.5 46q-65 0 -108.5 -48t-43.5 -124v-582h-395v1057zM633 -487q-65 0 -105.5 47t-40.5 121q0 76 45.5 122.5t120.5 46.5q86 0 139.5 -60t53.5 -157
q0 -109 -51.5 -219t-130.5 -170l-158 43q56 46 91.5 109t35.5 117z" />
    <glyph glyph-name="Ncaron" unicode="&#x147;" horiz-adv-x="1665" 
d="M604 1466l504 -931v931h414v-1466h-461l-504 928v-928h-414v1466h461zM971 1972h266l-211 -362h-381l-211 362h266l136 -215z" />
    <glyph glyph-name="ncaron" unicode="&#x148;" 
d="M117 1057h381v-152q59 91 143.5 142t185.5 51q162 0 266.5 -118.5t104.5 -301.5v-678h-395v588q0 74 -37.5 120t-101.5 46q-65 0 -108.5 -48t-43.5 -124v-582h-395v1057zM844 1542h266l-211 -362h-381l-211 362h266l136 -215z" />
    <glyph glyph-name="Omacron" unicode="&#x14c;" horiz-adv-x="1806" 
d="M903 -51q-182 0 -335.5 57t-260.5 159.5t-167 248.5t-60 319q0 231 102.5 409.5t290 277t430.5 98.5t431 -98.5t291.5 -277t103.5 -409.5t-103.5 -409.5t-291.5 -276.5t-431 -98zM903 1141q-169 0 -274 -113t-105 -295q0 -181 105 -293t274 -114q170 0 275.5 112.5
t105.5 294.5t-105.5 295t-275.5 113zM1268 1884v-227h-727v227h727z" />
    <glyph glyph-name="omacron" unicode="&#x14d;" horiz-adv-x="1345" 
d="M674 1098q267 0 432.5 -157.5t165.5 -412.5t-165.5 -412t-432.5 -157q-269 0 -434.5 157t-165.5 412t166 412.5t434 157.5zM674 303q91 0 148 62.5t57 162.5t-57 163t-148 63q-92 0 -148.5 -63t-56.5 -163t56.5 -162.5t148.5 -62.5zM1036 1454v-227h-727v227h727z" />
    <glyph glyph-name="Obreve" unicode="&#x14e;" horiz-adv-x="1806" 
d="M903 1141q-169 0 -274 -113t-105 -295q0 -181 105 -293t274 -114q170 0 275.5 112.5t105.5 294.5t-105.5 295t-275.5 113zM903 -51q-182 0 -335.5 57t-260.5 159.5t-167 248.5t-60 319q0 231 102.5 409.5t290 277t430.5 98.5t431 -98.5t291.5 -277t103.5 -409.5
t-103.5 -409.5t-291.5 -276.5t-431 -98zM1001 1931h232q0 -146 -89.5 -233.5t-240.5 -87.5t-239.5 88.5t-88.5 232.5h232q0 -54 26.5 -87.5t69.5 -33.5t70.5 33.5t27.5 87.5z" />
    <glyph glyph-name="obreve" unicode="&#x14f;" horiz-adv-x="1345" 
d="M674 303q91 0 148 62.5t57 162.5t-57 163t-148 63q-92 0 -148.5 -63t-56.5 -163t56.5 -162.5t148.5 -62.5zM674 1098q267 0 432.5 -157.5t165.5 -412.5t-165.5 -412t-432.5 -157q-269 0 -434.5 157t-165.5 412t166 412.5t434 157.5zM770 1542h231q0 -362 -327 -362
q-171 0 -250.5 96t-79.5 266h234q0 -72 26.5 -117t69.5 -45t69.5 45t26.5 117z" />
    <glyph glyph-name="Ohungarumlaut" unicode="&#x150;" horiz-adv-x="1806" 
d="M903 -51q-182 0 -335.5 57t-260.5 159.5t-167 248.5t-60 319q0 231 102.5 409.5t290 277t430.5 98.5t431 -98.5t291.5 -277t103.5 -409.5t-103.5 -409.5t-291.5 -276.5t-431 -98zM903 1141q-169 0 -274 -113t-105 -295q0 -181 105 -293t274 -114q170 0 275.5 112.5
t105.5 294.5t-105.5 295t-275.5 113zM758 1931h336l-260 -321h-271zM1194 1931h336l-295 -321h-268z" />
    <glyph glyph-name="ohungarumlaut" unicode="&#x151;" horiz-adv-x="1343" 
d="M672 303q91 0 148 62.5t57 162.5t-57 163t-148 63t-148 -63t-57 -163t57 -162.5t148 -62.5zM672 1098q267 0 432.5 -157.5t165.5 -412.5t-165.5 -412t-432.5 -157q-269 0 -434.5 157t-165.5 412t166 412.5t434 157.5zM330 1180l190 368h348l-278 -368h-260zM723 1182
l235 366h361l-326 -368z" />
    <glyph glyph-name="OE" unicode="&#x152;" horiz-adv-x="2150" 
d="M1083 395v676q-80 64 -198 64q-157 0 -259 -113t-102 -289q0 -175 101 -288t256 -113q120 0 202 63zM80 733q0 234 89 409.5t261 273t408 97.5q129 0 247 -47h965v-346h-539v-227h457v-299h-457v-246h560v-348h-984q-113 -45 -249 -45q-236 0 -408 97t-261 272t-89 409z
" />
    <glyph glyph-name="oe" unicode="&#x153;" horiz-adv-x="2131" 
d="M674 303q91 0 148 62.5t57 162.5t-57 163t-148 63q-92 0 -148.5 -63t-56.5 -163t56.5 -162.5t148.5 -62.5zM1284 629h379q-6 77 -60.5 131.5t-132.5 54.5q-74 0 -122.5 -50t-63.5 -136zM1077 127q-136 -168 -403 -168q-269 0 -434.5 157t-165.5 412t166 412.5t434 157.5
q267 0 403 -168q143 168 416 168q252 0 408.5 -157.5t156.5 -412.5q0 -66 -4 -106h-766q19 -83 71.5 -130.5t129.5 -47.5q65 0 113 32t69 84l330 -63q-40 -148 -184.5 -243t-329.5 -95q-271 0 -410 168z" />
    <glyph glyph-name="Racute" unicode="&#x154;" horiz-adv-x="1613" 
d="M807 1149h-219v-389h219q104 0 174 53.5t70 140.5q0 90 -69.5 142.5t-174.5 52.5zM588 473v-473h-445v1466h750q269 0 435.5 -141t166.5 -371q0 -147 -81.5 -259t-221.5 -165l344 -530h-489l-254 473h-205zM625 1610l237 321h355l-302 -321h-290z" />
    <glyph glyph-name="racute" unicode="&#x155;" horiz-adv-x="958" 
d="M117 1057h379v-133q43 79 118.5 126.5t159.5 47.5q49 0 119 -25v-350q-100 43 -186 43q-87 0 -141 -61t-54 -160v-545h-395v1057zM575 1542l351 -2l-310 -360h-276z" />
    <glyph glyph-name="Rcommaaccent" unicode="&#x156;" horiz-adv-x="1613" 
d="M807 1149h-219v-389h219q104 0 174 53.5t70 140.5q0 90 -69.5 142.5t-174.5 52.5zM588 473v-473h-445v1466h750q269 0 435.5 -141t166.5 -371q0 -147 -81.5 -259t-221.5 -165l344 -530h-489l-254 473h-205zM784 -487q-64 0 -103.5 47t-39.5 121q0 76 45.5 122.5
t120.5 46.5q86 0 138 -60t52 -157q0 -109 -51.5 -219t-130.5 -170l-158 43q55 44 91 108t36 118z" />
    <glyph glyph-name="rcommaaccent" unicode="&#x157;" horiz-adv-x="923" 
d="M117 1057h379v-133q43 79 118.5 126.5t159.5 47.5q49 0 119 -25v-350q-100 43 -186 43q-87 0 -141 -61t-54 -160v-545h-395v1057zM293 -487q-64 0 -103.5 47t-39.5 121q0 77 45 123t120 46q86 0 139.5 -60t53.5 -157q0 -109 -52 -219t-132 -170l-158 43q56 46 91.5 109
t35.5 117z" />
    <glyph glyph-name="Rcaron" unicode="&#x158;" horiz-adv-x="1613" 
d="M807 1149h-219v-389h219q104 0 174 53.5t70 140.5q0 90 -69.5 142.5t-174.5 52.5zM588 473v-473h-445v1466h750q269 0 435.5 -141t166.5 -371q0 -147 -81.5 -259t-221.5 -165l344 -530h-489l-254 473h-205zM795 1757l135 215h266l-213 -362h-381l-209 362h264z" />
    <glyph glyph-name="rcaron" unicode="&#x159;" horiz-adv-x="923" 
d="M117 1057h379v-133q43 79 118.5 126.5t159.5 47.5q49 0 119 -25v-350q-100 43 -186 43q-87 0 -141 -61t-54 -160v-545h-395v1057zM641 1542h266l-213 -362h-381l-211 362h267l135 -215z" />
    <glyph glyph-name="Sacute" unicode="&#x15a;" horiz-adv-x="1482" 
d="M1395 473q0 -153 -84 -273t-234 -185.5t-342 -65.5q-186 0 -334.5 68.5t-231.5 190.5t-83 275h385q2 -94 80.5 -155.5t198.5 -61.5q96 0 155.5 42t59.5 108q0 22 -8.5 40t-20 31t-35.5 23.5t-42.5 17t-54.5 13t-58.5 9.5t-65.5 9q-72 8 -128.5 18t-119.5 27.5t-110.5 40
t-92 57.5t-73 78.5t-45.5 103.5t-17 132q0 224 175 363t452 139q278 0 457.5 -144.5t181.5 -367.5h-373q1 84 -71 139t-181 55q-93 0 -152 -38t-59 -97q0 -25 9 -45t30 -33.5t42 -23t59 -17t67 -11.5t78 -9q69 -7 125 -16.5t118.5 -26.5t110.5 -39.5t93 -57t74.5 -78
t47 -103.5t17.5 -132zM795 1931h354l-301 -321h-289z" />
    <glyph glyph-name="sacute" unicode="&#x15b;" horiz-adv-x="1206" 
d="M1122 352q0 -176 -149 -288.5t-387 -112.5q-218 0 -359 111.5t-141 283.5h320q0 -62 52.5 -101.5t135.5 -39.5q65 0 108 28t43 70q0 47 -54 69.5t-169 30.5q-78 6 -133 15.5t-115 31.5t-97 55.5t-61 90t-24 133.5q0 164 136.5 270.5t346.5 106.5q218 0 361 -105t143 -266
l-334 2q0 49 -49 82t-121 33q-58 0 -96.5 -26t-38.5 -64q-2 -55 116 -80q17 -3 48 -8l10 -2q58 -6 100.5 -11.5t99 -17.5t96.5 -26.5t82.5 -39t69 -55t43.5 -74t17 -96.5zM662 1542l350 -2l-310 -360h-276z" />
    <glyph glyph-name="Scircumflex" unicode="&#x15c;" horiz-adv-x="1482" 
d="M1395 473q0 -153 -84 -273t-234 -185.5t-342 -65.5q-186 0 -334.5 68.5t-231.5 190.5t-83 275h385q2 -94 80.5 -155.5t198.5 -61.5q96 0 155.5 42t59.5 108q0 22 -8.5 40t-20 31t-35.5 23.5t-42.5 17t-54.5 13t-58.5 9.5t-65.5 9q-72 8 -128.5 18t-119.5 27.5t-110.5 40
t-92 57.5t-73 78.5t-45.5 103.5t-17 132q0 224 175 363t452 139q278 0 457.5 -144.5t181.5 -367.5h-373q1 84 -71 139t-181 55q-93 0 -152 -38t-59 -97q0 -25 9 -45t30 -33.5t42 -23t59 -17t67 -11.5t78 -9q69 -7 125 -16.5t118.5 -26.5t110.5 -39.5t93 -57t74.5 -78
t47 -103.5t17.5 -132zM592 1610h-258l201 321h383l202 -321h-258l-135 174z" />
    <glyph glyph-name="scircumflex" unicode="&#x15d;" horiz-adv-x="1206" 
d="M1122 352q0 -176 -149 -288.5t-387 -112.5q-218 0 -359 111.5t-141 283.5h320q0 -62 52.5 -101.5t135.5 -39.5q65 0 108 28t43 70q0 47 -54 69.5t-169 30.5q-78 6 -133 15.5t-115 31.5t-97 55.5t-61 90t-24 133.5q0 164 136.5 270.5t346.5 106.5q218 0 361 -105t143 -266
l-334 2q0 49 -49 82t-121 33q-58 0 -96.5 -26t-38.5 -64q-2 -55 116 -80q17 -3 48 -8l10 -2q58 -6 100.5 -11.5t99 -17.5t96.5 -26.5t82.5 -39t69 -55t43.5 -74t17 -96.5zM455 1182h-267l211 360h381l211 -362l-266 2l-135 213z" />
    <glyph glyph-name="Scedilla" unicode="&#x15e;" horiz-adv-x="1482" 
d="M664 -252h-99l37 211q-230 34 -373 177.5t-143 346.5h385q2 -94 80.5 -155.5t198.5 -61.5q96 0 155.5 42t59.5 108q0 22 -8.5 40t-20 31t-35.5 23.5t-42.5 17t-54.5 13t-58.5 9.5t-65.5 9q-72 8 -128.5 18t-119.5 27.5t-110.5 40t-92 57.5t-73 78.5t-45.5 103.5t-17 132
q0 224 175 363t452 139q278 0 457.5 -144.5t181.5 -367.5h-373q1 84 -71 139t-181 55q-93 0 -152 -38t-59 -97q0 -25 9 -45t30 -33.5t42 -23t59 -17t67 -11.5t78 -9q69 -7 125 -16.5t118.5 -26.5t110.5 -39.5t93 -57t74.5 -78t47 -103.5t17.5 -132q0 -220 -165.5 -363.5
t-432.5 -158.5l-19 -109q94 0 150.5 -53t56.5 -141q0 -91 -73 -146t-193 -55q-78 0 -140 37.5t-87 97.5l100 82q13 -32 42.5 -52t63.5 -20q36 0 57 21t21 55q0 37 -30.5 58.5t-81.5 21.5z" />
    <glyph glyph-name="scedilla" unicode="&#x15f;" horiz-adv-x="1206" 
d="M571 -252h-98l37 207q-189 20 -306.5 127.5t-117.5 263.5h320q0 -62 52.5 -101.5t135.5 -39.5q65 0 108 28t43 70q0 47 -54 69.5t-169 30.5q-78 6 -133 15.5t-115 31.5t-97 55.5t-61 90t-24 133.5q0 164 136.5 270.5t346.5 106.5q218 0 361 -105t143 -266l-334 2
q0 49 -49 82t-121 33q-58 0 -96.5 -26t-38.5 -64q-2 -55 116 -80q17 -3 48 -8l10 -2q58 -6 100.5 -11.5t99 -17.5t96.5 -26.5t82.5 -39t69 -55t43.5 -74t17 -96.5q0 -152 -113 -258.5t-302 -134.5l-21 -117q94 0 151.5 -53t57.5 -141q0 -91 -73 -146t-193 -55
q-78 0 -141.5 37.5t-86.5 97.5l101 82q13 -32 42.5 -52t61.5 -20q36 0 58 21t22 55q0 37 -31 58.5t-84 21.5z" />
    <glyph glyph-name="Scaron" unicode="&#x160;" horiz-adv-x="1482" 
d="M1395 473q0 -153 -84 -273t-234 -185.5t-342 -65.5q-186 0 -334.5 68.5t-231.5 190.5t-83 275h385q2 -94 80.5 -155.5t198.5 -61.5q96 0 155.5 42t59.5 108q0 22 -8.5 40t-20 31t-35.5 23.5t-42.5 17t-54.5 13t-58.5 9.5t-65.5 9q-72 8 -128.5 18t-119.5 27.5t-110.5 40
t-92 57.5t-73 78.5t-45.5 103.5t-17 132q0 224 175 363t452 139q278 0 457.5 -144.5t181.5 -367.5h-373q1 84 -71 139t-181 55q-93 0 -152 -38t-59 -97q0 -25 9 -45t30 -33.5t42 -23t59 -17t67 -11.5t78 -9q69 -7 125 -16.5t118.5 -26.5t110.5 -39.5t93 -57t74.5 -78
t47 -103.5t17.5 -132zM862 1972h266l-210 -362h-381l-211 362h264l137 -215z" />
    <glyph glyph-name="scaron" unicode="&#x161;" horiz-adv-x="1206" 
d="M1122 352q0 -176 -149 -288.5t-387 -112.5q-218 0 -359 111.5t-141 283.5h320q0 -62 52.5 -101.5t135.5 -39.5q65 0 108 28t43 70q0 47 -54 69.5t-169 30.5q-78 6 -133 15.5t-115 31.5t-97 55.5t-61 90t-24 133.5q0 164 136.5 270.5t346.5 106.5q218 0 361 -105t143 -266
l-334 2q0 49 -49 82t-121 33q-58 0 -96.5 -26t-38.5 -64q-2 -55 116 -80q17 -3 48 -8l10 -2q58 -6 100.5 -11.5t99 -17.5t96.5 -26.5t82.5 -39t69 -55t43.5 -74t17 -96.5zM694 1542h267l-211 -362h-381l-211 362h266l135 -215z" />
    <glyph glyph-name="Tcommaaccent" unicode="&#x162;" horiz-adv-x="1323" 
d="M440 0v1104h-413v362h1269v-362h-413v-1104h-443zM635 -487q-64 0 -105 47t-41 121q0 76 46.5 122.5t121.5 46.5q86 0 138.5 -60t52.5 -157q0 -109 -51.5 -219t-130.5 -170l-158 43q56 46 91.5 109t35.5 117z" />
    <glyph glyph-name="tcommaaccent" unicode="&#x163;" horiz-adv-x="880" 
d="M188 387v377h-135v293h152l39 276h338v-276h221v-293h-221v-330q0 -60 34 -96.5t91 -36.5q51 0 100 12v-317q-116 -37 -238 -37q-170 0 -275.5 120t-105.5 308zM492 -487q-64 0 -105 47t-41 121q0 76 46.5 122.5t121.5 46.5q86 0 138.5 -60t52.5 -157q0 -109 -52 -219
t-131 -170l-157 43q56 46 91.5 109t35.5 117z" />
    <glyph glyph-name="Tcaron" unicode="&#x164;" horiz-adv-x="1323" 
d="M440 0v1104h-413v362h1269v-362h-413v-1104h-443zM797 1972h266l-211 -362h-381l-211 362h266l136 -215z" />
    <glyph glyph-name="tcaron" unicode="&#x165;" horiz-adv-x="991" 
d="M188 387v377h-135v293h152l39 276h338v-276h221v-293h-221v-330q0 -60 34 -96.5t91 -36.5q51 0 100 12v-317q-116 -37 -238 -37q-170 0 -275.5 120t-105.5 308zM762 1403q-65 0 -105.5 46.5t-40.5 119.5q0 78 45.5 125t120.5 47q86 0 139.5 -60t53.5 -157
q0 -109 -51.5 -219t-130.5 -170l-158 43q55 44 91 107.5t36 117.5z" />
    <glyph glyph-name="Utilde" unicode="&#x168;" horiz-adv-x="1636" 
d="M1067 631v835h444v-852q0 -296 -191.5 -480.5t-500.5 -184.5q-205 0 -363 83.5t-244.5 235t-86.5 346.5v852h444v-835q0 -122 66 -210.5t184 -94.5q110 0 179 85t69 220zM559 1679l-182 97q31 90 111.5 151.5t173.5 61.5q63 0 121.5 -27.5t103 -54.5t74.5 -27
q32 0 60.5 22t47.5 60l182 -96q-31 -89 -115 -150t-182 -61q-52 0 -100.5 16.5t-78 36.5t-61.5 36.5t-55 16.5q-58 0 -100 -82z" />
    <glyph glyph-name="utilde" unicode="&#x169;" 
d="M1178 1057v-1057h-379v152q-60 -91 -145.5 -142t-186.5 -51q-163 0 -267 118.5t-104 303.5v676h396v-586q0 -75 37.5 -121.5t101.5 -46.5q65 0 108 49t43 125v580h396zM395 1229l-182 90q31 89 112 150t175 61q48 0 95.5 -16.5t78.5 -37t65.5 -37t59.5 -16.5q31 0 59 21
t45 57l184 -92q-31 -90 -114.5 -151.5t-181.5 -61.5q-52 0 -100.5 16.5t-78.5 37t-62.5 37t-57.5 16.5q-57 0 -97 -74z" />
    <glyph glyph-name="Umacron" unicode="&#x16a;" horiz-adv-x="1636" 
d="M1067 631v835h444v-852q0 -296 -191.5 -480.5t-500.5 -184.5q-205 0 -363 83.5t-244.5 235t-86.5 346.5v852h444v-835q0 -122 66 -210.5t184 -94.5q110 0 179 85t69 220zM1182 1884v-227h-727v227h727z" />
    <glyph glyph-name="umacron" unicode="&#x16b;" 
d="M1178 0h-379v152q-60 -91 -145.5 -142t-186.5 -51q-163 0 -267 118.5t-104 303.5v676h396v-586q0 -75 37.5 -121.5t101.5 -46.5q65 0 108 49t43 125v580h396v-1057zM1001 1454v-227h-729v227h729z" />
    <glyph glyph-name="Ubreve" unicode="&#x16c;" horiz-adv-x="1636" 
d="M1067 631v835h444v-852q0 -296 -191.5 -480.5t-500.5 -184.5q-205 0 -363 83.5t-244.5 235t-86.5 346.5v852h444v-835q0 -122 66 -210.5t184 -94.5q110 0 179 85t69 220zM915 1931h232q0 -146 -88.5 -233.5t-239.5 -87.5q-152 0 -241 88.5t-89 232.5h232
q0 -54 27.5 -87.5t70.5 -33.5t69.5 33.5t26.5 87.5z" />
    <glyph glyph-name="ubreve" unicode="&#x16d;" 
d="M1178 0h-379v152q-60 -91 -145.5 -142t-186.5 -51q-163 0 -267 118.5t-104 303.5v676h396v-586q0 -75 37.5 -121.5t101.5 -46.5q65 0 108 49t43 125v580h396v-1057zM733 1540h234q0 -170 -79.5 -265t-250.5 -95t-250.5 95.5t-79.5 264.5h234q0 -71 26.5 -115.5
t69.5 -44.5t69.5 44.5t26.5 115.5z" />
    <glyph glyph-name="Uring" unicode="&#x16e;" horiz-adv-x="1636" 
d="M819 1989q-49 0 -79.5 -30.5t-30.5 -80.5t30.5 -80.5t79.5 -30.5q48 0 78.5 31t30.5 80t-30.5 80t-78.5 31zM1067 631v835h444v-852q0 -296 -191.5 -480.5t-500.5 -184.5q-205 0 -363 83.5t-244.5 235t-86.5 346.5v852h444v-835q0 -122 66 -210.5t184 -94.5q110 0 179 85
t69 220zM819 1589q-144 0 -232.5 80t-88.5 209t88.5 209t232.5 80q143 0 231.5 -80t88.5 -209t-88.5 -209t-231.5 -80z" />
    <glyph glyph-name="uring" unicode="&#x16f;" 
d="M637 1556q-50 0 -80.5 -29.5t-30.5 -78.5q0 -50 31 -80.5t80 -30.5t80 30.5t31 80.5q0 49 -30.5 78.5t-80.5 29.5zM1178 1057v-1057h-379v152q-60 -91 -145.5 -142t-186.5 -51q-163 0 -267 118.5t-104 303.5v676h396v-586q0 -75 37.5 -121.5t101.5 -46.5q65 0 108 49
t43 125v580h396zM637 1159q-145 0 -233.5 80t-88.5 209t88.5 208t233.5 79t233 -79t88 -208t-88.5 -209t-232.5 -80z" />
    <glyph glyph-name="Uhungarumlaut" unicode="&#x170;" horiz-adv-x="1636" 
d="M1067 631v835h444v-852q0 -296 -191.5 -480.5t-500.5 -184.5q-205 0 -363 83.5t-244.5 235t-86.5 346.5v852h444v-835q0 -122 66 -210.5t184 -94.5q110 0 179 85t69 220zM666 1931h335l-262 -321h-270zM1102 1931h336l-295 -321h-271z" />
    <glyph glyph-name="uhungarumlaut" unicode="&#x171;" horiz-adv-x="1269" 
d="M1178 0h-379v152q-60 -91 -145.5 -142t-186.5 -51q-163 0 -267 118.5t-104 303.5v676h396v-586q0 -75 37.5 -121.5t101.5 -46.5q65 0 108 49t43 125v580h396v-1057zM467 1548h346l-278 -368h-261zM903 1548h363l-328 -368h-270z" />
    <glyph glyph-name="Uogonek" unicode="&#x172;" horiz-adv-x="1636" 
d="M750 -49q-282 22 -453.5 203t-171.5 460v852h444v-835q0 -122 66 -210.5t184 -94.5q110 0 179 85t69 220v835h444v-852q0 -255 -145 -431t-389 -220q-123 -63 -123 -162q0 -86 77.5 -140.5t203.5 -57.5v-176q-221 0 -359.5 90.5t-138.5 232.5q0 124 113 201z" />
    <glyph glyph-name="uogonek" unicode="&#x173;" horiz-adv-x="1353" 
d="M938 0h-139v152q-60 -91 -145.5 -142t-186.5 -51q-163 0 -267 118.5t-104 303.5v676h396v-586q0 -75 37.5 -121.5t101.5 -46.5q65 0 108 49t43 125v580h396v-1057h-19q-203 -70 -203 -195q0 -86 77.5 -141.5t203.5 -56.5v-176q-222 0 -360 89.5t-138 231.5q0 82 53 147
t146 101z" />
    <glyph glyph-name="Wcircumflex" unicode="&#x174;" horiz-adv-x="2531" 
d="M1487 1466l278 -1075l275 1075h446l-393 -1466h-612l-215 885l-215 -885h-613l-395 1466h449l276 -1075l279 1075h440zM1128 1610h-258l203 321h381l203 -321h-258l-135 174z" />
    <glyph glyph-name="wcircumflex" unicode="&#x175;" horiz-adv-x="1933" 
d="M825 0h-487l-299 1057h407l168 -660l183 660h340l198 -670l168 670h393l-301 -1057h-485l-143 596zM831 1182h-264l209 360h383l211 -362l-266 2l-135 213z" />
    <glyph glyph-name="Ycircumflex" unicode="&#x176;" horiz-adv-x="1482" 
d="M524 0v500l-508 966h463l269 -585l247 585h471l-497 -966v-500h-445zM606 1610h-258l203 321h381l203 -321h-256l-138 174z" />
    <glyph glyph-name="ycircumflex" unicode="&#x177;" horiz-adv-x="1298" 
d="M209 -444v276q43 -16 113 -16q89 0 139 37.5t80 128.5l-523 1075h428l244 -580l184 580h406l-401 -1106q-82 -226 -187 -330t-256 -104q-124 0 -227 39zM514 1182h-264l209 360h383l211 -362l-267 2l-135 213z" />
    <glyph glyph-name="Ydieresis" unicode="&#x178;" horiz-adv-x="1482" 
d="M524 0v500l-508 966h463l269 -585l247 585h471l-497 -966v-500h-445zM471 1602q-83 0 -136.5 52.5t-53.5 135.5t53.5 135.5t136.5 52.5t135.5 -52.5t52.5 -135.5t-52.5 -135.5t-135.5 -52.5zM1014 1602q-84 0 -137.5 52.5t-53.5 135.5t53.5 135.5t137.5 52.5
q83 0 135.5 -52.5t52.5 -135.5t-52.5 -135.5t-135.5 -52.5z" />
    <glyph glyph-name="Zacute" unicode="&#x179;" horiz-adv-x="1384" 
d="M88 291l621 831h-600v344h1167v-290l-600 -832h620v-344h-1208v291zM760 1931h354l-301 -321h-289z" />
    <glyph glyph-name="zacute" unicode="&#x17a;" horiz-adv-x="1177" 
d="M88 258l459 485h-438v314h960v-256l-422 -488h443v-313h-1002v258zM662 1542l350 -2l-310 -360h-276z" />
    <glyph glyph-name="Zdotaccent" unicode="&#x17b;" horiz-adv-x="1384" 
d="M88 291l621 831h-600v344h1167v-290l-600 -832h620v-344h-1208v291zM692 1610q-89 0 -147 54.5t-58 139.5q0 86 57.5 140.5t147.5 54.5q91 0 148 -54.5t57 -140.5q0 -85 -57.5 -139.5t-147.5 -54.5z" />
    <glyph glyph-name="zdotaccent" unicode="&#x17c;" horiz-adv-x="1177" 
d="M88 258l459 485h-438v314h960v-256l-422 -488h443v-313h-1002v258zM590 1212q-89 0 -147 55.5t-58 141.5t58 141.5t147 55.5t147 -55.5t58 -141.5t-58 -141.5t-147 -55.5z" />
    <glyph glyph-name="Zcaron" unicode="&#x17d;" horiz-adv-x="1384" 
d="M88 291l621 831h-600v344h1167v-290l-600 -832h620v-344h-1208v291zM827 1972h267l-211 -362h-381l-211 362h266l135 -215z" />
    <glyph glyph-name="zcaron" unicode="&#x17e;" horiz-adv-x="1177" 
d="M88 258l459 485h-438v314h960v-256l-422 -488h443v-313h-1002v258zM725 1542h266l-211 -362h-381l-211 362h267l135 -215z" />
    <glyph glyph-name="Aacutering" unicode="&#x1fa;" horiz-adv-x="1601" 
d="M801 1092l-172 -570h346zM801 1831q-33 0 -53.5 -20.5t-20.5 -53.5q0 -34 20 -54t54 -20q33 0 53 20.5t20 53.5q0 32 -20.5 53t-52.5 21zM545 211l-62 -211h-465l459 1466h647l459 -1466h-465l-61 211h-512zM801 1505q-128 0 -207.5 69t-79.5 183q0 113 79 182.5
t206 69.5q128 0 207 -70t79 -182q0 -114 -78 -183t-206 -69zM637 2044l219 237h326l-254 -237h-291z" />
    <glyph glyph-name="aacutering" unicode="&#x1fb;" horiz-adv-x="1392" 
d="M674 303q89 0 147 64t58 161q0 98 -58 162t-147 64q-90 0 -147.5 -63.5t-57.5 -162.5q0 -97 57.5 -161t147.5 -64zM684 1460q-34 0 -54 -20t-20 -54q0 -32 21 -52.5t53 -20.5t53 20.5t21 52.5q0 33 -20.5 53.5t-53.5 20.5zM881 922v135h393v-1057h-393v135
q-121 -176 -326 -176q-215 0 -348 157.5t-133 411.5t133 412t348 158q205 0 326 -176zM684 1135q-128 0 -206.5 69.5t-78.5 181.5q0 114 78.5 183t206.5 69t206.5 -69t78.5 -183q0 -112 -78.5 -181.5t-206.5 -69.5zM616 1686l191 245h309l-225 -245h-275z" />
    <glyph glyph-name="AEacute" unicode="&#x1fc;" horiz-adv-x="2097" 
d="M750 510h313v659zM1458 348h561v-348h-956v211h-453l-100 -211h-492l721 1466h1260v-348h-541v-225h459v-299h-459v-246zM1022 1575l238 319h354l-301 -319h-291z" />
    <glyph glyph-name="aeacute" unicode="&#x1fd;" horiz-adv-x="2138" 
d="M686 786q-97 0 -158 -71.5t-61 -186.5q0 -114 61 -186t158 -72q98 0 159.5 71t61.5 187q0 115 -61.5 186.5t-159.5 71.5zM1286 606h383q-5 81 -58.5 137t-131.5 56q-76 0 -127 -50.5t-66 -142.5zM903 915v142h234v-160q52 92 156 146.5t239 54.5q232 0 383 -157.5
t151 -401.5q0 -54 -6 -123h-770q15 -77 73.5 -124.5t139.5 -47.5q65 0 116 31.5t64 82.5l338 -45q-40 -155 -180 -254.5t-317 -99.5q-127 0 -233 55t-154 142v-156h-234v141q-61 -87 -149.5 -134.5t-196.5 -47.5q-215 0 -349 157.5t-134 411.5t134 412t349 158
q107 0 196 -48t150 -135zM879 1167l235 361h352l-311 -361h-276z" />
    <glyph glyph-name="Oslashacute" unicode="&#x1fe;" horiz-adv-x="1765" 
d="M883 1141q-156 0 -257.5 -115t-101.5 -293q0 -169 101 -278l348 671q-54 15 -90 15zM883 326q157 0 258.5 114.5t101.5 292.5q0 160 -94 275l-346 -672q31 -10 80 -10zM621 -12l-142 -275h-239l186 363q-162 103 -254 274.5t-92 382.5q0 168 60.5 314t166 249.5
t255 162.5t321.5 59q144 0 272 -41l148 284h239l-194 -375q160 -106 250 -275t90 -378q0 -168 -60.5 -314t-166.5 -249t-255.5 -162t-322.5 -59q-137 0 -262 39zM731 1589l236 322h356l-303 -322h-289z" />
    <glyph glyph-name="oslashacute" unicode="&#x1ff;" horiz-adv-x="1380" 
d="M690 821q-119 0 -195.5 -81.5t-76.5 -211.5q0 -127 74 -204l256 491q-21 6 -58 6zM690 238q120 0 195.5 80.5t75.5 209.5q0 118 -66 197l-252 -483q14 -4 47 -4zM506 -18l-74 -146h-199l109 207q-127 73 -197.5 198.5t-70.5 286.5q0 255 170 412.5t446 157.5
q101 0 193 -25l80 156h198l-117 -221q124 -73 192.5 -197.5t68.5 -282.5q0 -255 -170 -412t-445 -157q-90 0 -184 23zM762 1542l350 -2l-309 -360h-277z" />
    <glyph glyph-name="Scommaaccent" unicode="&#x218;" horiz-adv-x="1482" 
d="M1395 473q0 -153 -84 -273t-234 -185.5t-342 -65.5q-186 0 -334.5 68.5t-231.5 190.5t-83 275h385q2 -94 80.5 -155.5t198.5 -61.5q96 0 155.5 42t59.5 108q0 22 -8.5 40t-20 31t-35.5 23.5t-42.5 17t-54.5 13t-58.5 9.5t-65.5 9q-72 8 -128.5 18t-119.5 27.5t-110.5 40
t-92 57.5t-73 78.5t-45.5 103.5t-17 132q0 224 175 363t452 139q278 0 457.5 -144.5t181.5 -367.5h-373q1 84 -71 139t-181 55q-93 0 -152 -38t-59 -97q0 -25 9 -45t30 -33.5t42 -23t59 -17t67 -11.5t78 -9q69 -7 125 -16.5t118.5 -26.5t110.5 -39.5t93 -57t74.5 -78
t47 -103.5t17.5 -132zM696 -487q-64 0 -103.5 47t-39.5 121q0 76 45.5 122.5t120.5 46.5q86 0 139 -60t53 -157q0 -109 -52 -219t-132 -170l-158 43q56 46 91.5 109t35.5 117z" />
    <glyph glyph-name="scommaaccent" unicode="&#x219;" horiz-adv-x="1206" 
d="M1122 352q0 -176 -149 -288.5t-387 -112.5q-218 0 -359 111.5t-141 283.5h320q0 -62 52.5 -101.5t135.5 -39.5q65 0 108 28t43 70q0 47 -54 69.5t-169 30.5q-78 6 -133 15.5t-115 31.5t-97 55.5t-61 90t-24 133.5q0 164 136.5 270.5t346.5 106.5q218 0 361 -105t143 -266
l-334 2q0 49 -49 82t-121 33q-58 0 -96.5 -26t-38.5 -64q-2 -55 116 -80q17 -3 48 -8l10 -2q58 -6 100.5 -11.5t99 -17.5t96.5 -26.5t82.5 -39t69 -55t43.5 -74t17 -96.5zM567 -487q-64 0 -103.5 47t-39.5 121q0 76 45.5 122.5t120.5 46.5q86 0 138 -60t52 -157
q0 -109 -51.5 -219t-130.5 -170l-158 43q56 46 91.5 109t35.5 117z" />
    <glyph glyph-name="circumflex" unicode="&#x2c6;" horiz-adv-x="950" 
d="M74 1167l211 363h381l211 -363h-267l-135 215l-135 -215h-266z" />
    <glyph glyph-name="caron" unicode="&#x2c7;" horiz-adv-x="950" 
d="M610 1528l267 2l-211 -363h-381l-211 361h266l135 -213z" />
    <glyph glyph-name="breve" unicode="&#x2d8;" horiz-adv-x="806" 
d="M500 1528h231q0 -361 -328 -361q-171 0 -250 96t-79 265h233q0 -71 26.5 -115.5t69.5 -44.5t70 44.5t27 115.5z" />
    <glyph glyph-name="dotaccent" unicode="&#x2d9;" horiz-adv-x="557" 
d="M279 1147q-89 0 -147 55t-58 141t58 141.5t147 55.5t146.5 -55.5t57.5 -141.5t-57.5 -141t-146.5 -55z" />
    <glyph glyph-name="ring" unicode="&#x2da;" horiz-adv-x="790" 
d="M395 1114q-145 0 -233 79t-88 208q0 130 88 209.5t233 79.5t233.5 -79.5t88.5 -209.5q0 -129 -88.5 -208t-233.5 -79zM395 1511q-49 0 -79.5 -30.5t-30.5 -79.5q0 -48 30.5 -78.5t79.5 -30.5t80 30.5t31 78.5q0 49 -30.5 79.5t-80.5 30.5z" />
    <glyph glyph-name="ogonek" unicode="&#x2db;" horiz-adv-x="645" 
d="M352 20l152 -20q-213 -69 -213 -199q0 -86 77 -140.5t203 -57.5v-176q-221 0 -359 90.5t-138 232.5q0 98 75 170t203 100z" />
    <glyph glyph-name="tilde" unicode="&#x2dc;" horiz-adv-x="1021" 
d="M256 1200l-182 92q31 89 111.5 150t172.5 61q62 0 120 -26.5t103 -53t76 -26.5q32 0 60.5 21t46.5 55l184 -93q-31 -88 -116 -149.5t-183 -61.5q-51 0 -99.5 16.5t-78 37t-62 37t-57.5 16.5q-57 0 -96 -76z" />
    <glyph glyph-name="hungarumlaut" unicode="&#x2dd;" horiz-adv-x="1136" 
d="M264 1536h348l-278 -369h-260zM702 1536h361l-326 -369h-270z" />
    <glyph glyph-name="Wgrave" unicode="&#x1e80;" horiz-adv-x="2531" 
d="M1487 1466l278 -1075l275 1075h446l-393 -1466h-612l-215 885l-215 -885h-613l-395 1466h449l276 -1075l279 1075h440zM811 1931h356l236 -321h-291z" />
    <glyph glyph-name="wgrave" unicode="&#x1e81;" horiz-adv-x="1933" 
d="M825 0h-487l-299 1057h407l168 -660l183 660h340l198 -670l168 670h393l-301 -1057h-485l-143 596zM541 1540l350 2l235 -362h-276z" />
    <glyph glyph-name="Wacute" unicode="&#x1e82;" horiz-adv-x="2531" 
d="M1487 1466l278 -1075l275 1075h446l-393 -1466h-612l-215 885l-215 -885h-613l-395 1466h449l276 -1075l279 1075h440zM1331 1931h355l-302 -321h-288z" />
    <glyph glyph-name="wacute" unicode="&#x1e83;" horiz-adv-x="1933" 
d="M825 0h-487l-299 1057h407l168 -660l183 660h340l198 -670l168 670h393l-301 -1057h-485l-143 596zM1038 1542l351 -2l-310 -360h-276z" />
    <glyph glyph-name="Wdieresis" unicode="&#x1e84;" horiz-adv-x="2531" 
d="M1487 1466l278 -1075l275 1075h446l-393 -1466h-612l-215 885l-215 -885h-613l-395 1466h449l276 -1075l279 1075h440zM991 1602q-82 0 -135 52.5t-53 135.5t53 135.5t135 52.5q84 0 137.5 -52.5t53.5 -135.5t-53.5 -135.5t-137.5 -52.5zM1534 1602q-82 0 -135 52.5
t-53 135.5t53 135.5t135 52.5q85 0 137.5 -52.5t52.5 -135.5t-52.5 -135.5t-137.5 -52.5z" />
    <glyph glyph-name="wdieresis" unicode="&#x1e85;" horiz-adv-x="1933" 
d="M825 0h-487l-299 1057h407l168 -660l183 660h340l198 -670l168 670h393l-301 -1057h-485l-143 596zM690 1178q-82 0 -135 51.5t-53 130.5q0 78 53 129t135 51q83 0 137 -51t54 -129q0 -79 -54 -130.5t-137 -51.5zM1245 1178q-83 0 -136.5 51t-53.5 131q0 78 53.5 129
t136.5 51t136 -51t53 -129q0 -80 -53 -131t-136 -51z" />
    <glyph glyph-name="Germandbls" unicode="&#x1e9e;" horiz-adv-x="1599" 
d="M567 993v-993h-444v983q0 236 182 383t477 147q269 0 432.5 -121.5t163.5 -320.5q0 -95 -53.5 -166t-146.5 -102q137 -30 230 -147t93 -273q0 -189 -136 -311.5t-343 -122.5q-85 0 -183.5 23.5t-176.5 60.5l67 258q92 -47 166 -47q71 0 116.5 51.5t45.5 130.5
q0 100 -64.5 161.5t-177.5 61.5h-94v238h98q72 0 116 41.5t44 107.5q0 80 -57 130.5t-148 50.5q-93 0 -150 -61.5t-57 -162.5z" />
    <glyph glyph-name="Ygrave" unicode="&#x1ef2;" horiz-adv-x="1482" 
d="M524 0v500l-508 966h463l269 -585l247 585h471l-497 -966v-500h-445zM291 1931h354l236 -321h-289z" />
    <glyph glyph-name="ygrave" unicode="&#x1ef3;" horiz-adv-x="1298" 
d="M209 -444v276q43 -16 113 -16q89 0 139 37.5t80 128.5l-523 1075h428l244 -580l184 580h406l-401 -1106q-82 -226 -187 -330t-256 -104q-124 0 -227 39zM223 1540l350 2l236 -362h-277z" />
    <glyph glyph-name="endash" unicode="&#x2013;" horiz-adv-x="1314" 
d="M1241 793v-314h-1167v314h1167z" />
    <glyph glyph-name="emdash" unicode="&#x2014;" horiz-adv-x="1673" 
d="M47 793h1577v-314h-1577v314z" />
    <glyph glyph-name="quoteleft" unicode="&#x2018;" horiz-adv-x="589" 
d="M319 1196q86 0 140.5 -59t54.5 -152q0 -92 -60.5 -151.5t-150.5 -59.5q-103 0 -166 81t-63 216q0 121 63 248.5t160 202.5l192 -47q-74 -66 -122 -145t-48 -134z" />
    <glyph glyph-name="quoteright" unicode="&#x2019;" horiz-adv-x="589" 
d="M268 1114q-85 0 -139.5 59.5t-54.5 151.5q0 93 61 152t152 59q103 0 166 -81t63 -214q0 -123 -63 -249.5t-160 -200.5l-193 45q73 66 120.5 144t47.5 134z" />
    <glyph glyph-name="quotesinglbase" unicode="&#x201a;" horiz-adv-x="589" 
d="M268 -37q-85 0 -139.5 59.5t-54.5 151.5q0 91 61.5 151t151.5 60q103 0 166 -81t63 -216q0 -121 -63 -248t-160 -202l-193 47q74 66 121 143.5t47 134.5z" />
    <glyph glyph-name="quotedblleft" unicode="&#x201c;" horiz-adv-x="1142" 
d="M520 985q0 -91 -61 -151t-150 -60q-104 0 -167.5 81t-63.5 216q0 121 63 248.5t160 202.5l193 -47q-73 -66 -120.5 -144.5t-47.5 -134.5q85 0 139.5 -59.5t54.5 -151.5zM1063 985q0 -92 -60.5 -151.5t-150.5 -59.5q-103 0 -166 81t-63 216q0 122 62 249t159 202l192 -47
q-73 -66 -120.5 -144.5t-47.5 -134.5q86 0 140.5 -59t54.5 -152z" />
    <glyph glyph-name="quotedblright" unicode="&#x201d;" horiz-adv-x="1136" 
d="M80 1341q0 92 60.5 151.5t150.5 59.5q103 0 166 -81t63 -214q0 -123 -62.5 -250t-160.5 -200l-191 45q73 67 120.5 145t47.5 133q-86 0 -140 59t-54 152zM623 1341q0 92 60.5 151.5t150.5 59.5q104 0 166.5 -80.5t62.5 -214.5q0 -123 -62 -250t-159 -200l-193 45
q73 66 120.5 144t47.5 134q-85 0 -139.5 59.5t-54.5 151.5z" />
    <glyph glyph-name="quotedblbase" unicode="&#x201e;" horiz-adv-x="1136" 
d="M80 174q0 93 60.5 152t150.5 59q103 0 166 -81t63 -214q0 -123 -62.5 -250t-160.5 -200l-191 45q73 67 120.5 145t47.5 133q-86 0 -140 59t-54 152zM623 174q0 93 60.5 152t150.5 59q104 0 166.5 -80.5t62.5 -214.5q0 -123 -62 -250t-159 -200l-193 45q73 66 120.5 144
t47.5 134q-85 0 -139.5 59.5t-54.5 151.5z" />
    <glyph glyph-name="bullet" unicode="&#x2022;" horiz-adv-x="720" 
d="M360 356q-126 0 -206 78.5t-80 200.5t80 200t206 78q125 0 206 -78.5t81 -199.5t-81 -200t-206 -79z" />
    <glyph glyph-name="ellipsis" unicode="&#x2026;" horiz-adv-x="1679" 
d="M293 -37q-95 0 -157 59.5t-62 151.5q0 93 61.5 153t157.5 60q97 0 158 -59.5t61 -153.5q0 -92 -61 -151.5t-158 -59.5zM840 -37q-95 0 -157 59.5t-62 151.5q0 93 61.5 153t157.5 60q97 0 158 -59.5t61 -153.5q0 -92 -61 -151.5t-158 -59.5zM1386 -37q-95 0 -157 59.5
t-62 151.5q0 93 61.5 153t157.5 60q97 0 158.5 -59.5t61.5 -153.5q0 -92 -61.5 -151.5t-158.5 -59.5z" />
    <glyph glyph-name="perthousand" unicode="&#x2030;" horiz-adv-x="3241" 
d="M1270 420q0 199 128 328t326 129q200 0 328.5 -128.5t128.5 -328.5q0 -198 -129 -326.5t-328 -128.5q-198 0 -326 128.5t-128 326.5zM1876 420q0 66 -43 108.5t-109 42.5t-107.5 -42.5t-41.5 -108.5t41.5 -108t107.5 -42t109 42t43 108zM2257 420q0 200 128.5 328.5
t328.5 128.5q198 0 326 -129t128 -328q0 -198 -128 -326.5t-326 -128.5q-199 0 -328 128.5t-129 326.5zM2863 420q0 66 -42 108.5t-109 42.5q-66 0 -108 -42.5t-42 -108.5t42 -108t108 -42q67 0 109 42t42 108zM74 1108q0 200 128.5 328.5t327.5 128.5q198 0 326.5 -129
t128.5 -328q0 -198 -128.5 -326.5t-326.5 -128.5q-199 0 -327.5 128.5t-128.5 326.5zM680 1108q0 66 -42.5 107.5t-109.5 41.5q-66 0 -107.5 -41.5t-41.5 -107.5t41.5 -108t107.5 -42q67 0 109.5 42t42.5 108zM1466 1528h340l-1018 -1528h-339z" />
    <glyph glyph-name="guilsinglleft" unicode="&#x2039;" horiz-adv-x="841" 
d="M768 1057l-362 -514l362 -543h-401l-349 543l349 514h401z" />
    <glyph glyph-name="guilsinglright" unicode="&#x203a;" horiz-adv-x="841" 
d="M825 543l-350 -543h-401l364 543l-364 514h401z" />
    <glyph glyph-name="lira" unicode="&#x20a4;" horiz-adv-x="1390" 
d="M831 1190q-57 0 -88.5 -47.5t-31.5 -124.5v-105h419v-184h-419q0 -26 -4 -76h423v-184h-499q-63 -129 -199 -190h883v-279h-1241v352q108 27 153 133h-149v168h221v76h-221v184h221v136q0 205 136.5 337t352.5 132q225 0 364 -122.5t165 -320.5l-350 -55q-11 78 -45 124
t-91 46z" />
    <glyph glyph-name="Euro" unicode="&#x20ac;" horiz-adv-x="1857" 
d="M1036 326q117 0 210.5 73t119.5 185l412 -47q-15 -168 -117.5 -302.5t-269.5 -210t-367 -75.5q-285 0 -493.5 153.5t-278.5 407.5h-193v184h166q-2 12 -2 39q0 29 2 43h-166v187h195q70 251 277.5 403t492.5 152q298 0 510 -168.5t240 -427.5l-410 -43q-23 114 -115 188
t-211 74q-105 0 -187 -47t-128 -131h332v-187h-385q-2 -14 -2 -43q0 -27 2 -39h385v-184h-334q48 -87 130 -135.5t185 -48.5z" />
    <glyph glyph-name="trademark" unicode="&#x2122;" horiz-adv-x="2459" 
d="M289 307v883h-262v276h852v-276h-263v-883h-327zM2011 987l-248 -680h-227l-246 680v-680h-311v1159h383l287 -737l280 737h393v-1159h-311v680z" />
    <glyph glyph-name="minus" unicode="&#x2212;" horiz-adv-x="987" 
d="M74 793h839v-314h-839v314z" />
    <glyph glyph-name="approxequal" unicode="&#x2248;" horiz-adv-x="1196" 
 />
    <glyph glyph-name="notequal" unicode="&#x2260;" horiz-adv-x="1110" 
d="M74 514h334l75 229h-409v299h506l90 281h231l-90 -281h225v-299h-319l-74 -229h393v-299h-485l-96 -297h-236l96 297h-241v299z" />
    <glyph glyph-name="lessequal" unicode="&#x2264;" horiz-adv-x="927" 
d="M854 254v-254h-780v254h780zM74 874l780 193v-240l-553 -125l553 -127v-239l-780 190v348z" />
    <glyph glyph-name="greaterequal" unicode="&#x2265;" horiz-adv-x="927" 
d="M74 254h780v-254h-780v254zM74 575l553 127l-553 125v240l780 -193v-348l-780 -190v239z" />
    <glyph glyph-name="commaaccent" unicode="&#xf6c3;" horiz-adv-x="505" 
d="M219 -76q-65 0 -105 47.5t-40 120.5q0 78 45.5 125t120.5 47q86 0 139 -60.5t53 -158.5q0 -108 -51.5 -217.5t-130.5 -171.5l-158 45q55 44 91 107t36 116z" />
    <glyph glyph-name="acute.case" horiz-adv-x="739" 
d="M666 1528l-304 -320h-288l235 320h357z" />
    <glyph glyph-name="breve.case" horiz-adv-x="804" 
d="M500 1528h231q0 -144 -88.5 -232t-239.5 -88t-240 88t-89 232h233q0 -54 26.5 -86.5t69.5 -32.5t70 32.5t27 86.5z" />
    <glyph glyph-name="caron.case" horiz-adv-x="933" 
d="M602 1528h258l-203 -320h-381l-202 320h258l135 -172z" />
    <glyph glyph-name="circumflex.case" horiz-adv-x="933" 
d="M74 1208l202 320h381l203 -320h-258l-135 174l-135 -174h-258z" />
    <glyph glyph-name="dieresis.case" horiz-adv-x="1069" 
d="M264 1112q-83 0 -136.5 52.5t-53.5 135.5t53.5 136t136.5 53t136 -53t53 -136t-53 -135.5t-136 -52.5zM807 1112q-84 0 -137.5 52.5t-53.5 135.5t54 136t137 53t135.5 -53t52.5 -136t-52.5 -135.5t-135.5 -52.5z" />
    <glyph glyph-name="dotaccent.case" horiz-adv-x="557" 
d="M279 1147q-89 0 -147 54.5t-58 139.5t58 140t147 55t146.5 -55t57.5 -140t-57.5 -139.5t-146.5 -54.5z" />
    <glyph glyph-name="grave.case" horiz-adv-x="739" 
d="M74 1829h354l238 -320h-291z" />
    <glyph glyph-name="hungarumlaut.case" horiz-adv-x="1116" 
d="M270 1528h334l-260 -320h-270zM707 1528h333l-292 -320h-271z" />
    <glyph glyph-name="ijacute" 
d="M123 1057h393v-1057h-393v1057zM786 -23v1080h396v-1096q0 -184 -109.5 -298t-286.5 -114q-145 0 -258 37v271q51 -13 119 -13q63 0 101 36.5t38 96.5zM395 1528h350l-309 -361h-276zM1044 1528h351l-310 -361h-276z" />
    <glyph glyph-name="ring.case" horiz-adv-x="716" 
d="M358 1106q-127 0 -205.5 69.5t-78.5 182.5t78.5 182.5t205.5 69.5t206 -69.5t79 -182.5t-79 -182.5t-206 -69.5zM358 1432q-32 0 -52.5 -20t-20.5 -54q0 -32 20.5 -53t52.5 -21q34 0 55 21t19 53q0 34 -20 54t-54 20z" />
    <glyph glyph-name="tilde.case" horiz-adv-x="1021" 
d="M256 1237l-182 96q31 90 111 150.5t173 60.5q62 0 120 -26.5t103 -53t76 -26.5t60.5 22.5t46.5 59.5l184 -99q-31 -88 -116 -149.5t-183 -61.5q-66 0 -123.5 27t-100 53.5t-71.5 26.5q-55 0 -98 -80z" />
    </font>
</defs>
</svg>
